<?xml version="1.0" standalone="no"?>
<!DOCTYPE svg PUBLIC "-//W3C//DTD SVG 20010904//EN"
 "http://www.w3.org/TR/2001/REC-SVG-20010904/DTD/svg10.dtd">
<svg version="1.0" xmlns="http://www.w3.org/2000/svg"
 width="1024.000000pt" height="1024.000000pt" viewBox="0 0 1024.000000 1024.000000"
 preserveAspectRatio="xMidYMid meet">

<g transform="translate(0.000000,1024.000000) scale(0.100000,-0.100000)"
fill="#000000" stroke="none">
<path d="M1224 9791 c-91 -42 -130 -128 -164 -364 -46 -317 -51 -375 -57 -622
-6 -252 5 -368 52 -548 36 -141 68 -200 199 -371 34 -44 89 -116 123 -160 34
-45 60 -82 58 -84 -2 -2 -18 4 -37 13 -43 20 -219 160 -212 168 3 3 -2 14 -11
24 -33 37 -95 123 -127 175 -18 29 -36 55 -40 56 -4 2 -8 10 -8 17 0 8 -14 44
-31 81 -53 114 -79 196 -91 289 -17 117 -23 80 -26 -155 -6 -383 92 -748 271
-1009 107 -156 284 -311 425 -371 29 -13 51 -24 50 -26 -2 -1 -51 6 -111 17
-124 22 -219 55 -281 98 -65 45 -173 166 -222 251 -52 89 -54 80 -24 -92 22
-127 42 -193 90 -288 32 -64 109 -172 133 -187 6 -4 -3 12 -22 35 -51 65 -30
61 41 -8 83 -80 199 -157 268 -177 42 -12 51 -18 35 -23 -18 -6 -18 -7 -1 -17
16 -9 9 -16 -55 -49 -155 -80 -292 -257 -340 -440 -27 -104 -29 -284 -4 -370
20 -70 69 -166 98 -191 20 -18 20 -18 11 12 -5 17 -9 68 -9 115 1 69 5 93 24
128 55 107 155 177 266 188 47 5 83 0 162 -20 56 -14 114 -26 130 -27 57 -1
-11 -17 -108 -25 -65 -5 -86 -10 -69 -15 80 -23 200 3 350 74 113 54 342 138
386 141 17 2 37 7 45 11 33 19 -52 -61 -113 -107 -98 -72 -107 -53 -10 22 45
35 82 65 82 67 0 6 -41 -18 -89 -52 -50 -36 -242 -135 -261 -135 -6 0 -8 5 -5
10 4 6 -6 10 -22 10 -30 0 -110 -38 -195 -93 -130 -84 -239 -242 -263 -383
l-7 -39 29 45 c40 62 106 116 169 139 29 11 112 27 186 35 142 16 278 50 360
92 27 14 52 23 54 21 8 -8 -85 -62 -251 -147 -277 -142 -337 -194 -385 -334
-29 -85 -26 -112 5 -59 37 60 102 99 250 144 173 54 194 62 262 105 70 45 61
34 -87 -115 -159 -160 -260 -313 -322 -491 -37 -108 -62 -320 -39 -334 5 -3
12 9 15 28 14 71 102 179 206 249 39 27 44 20 11 -14 -110 -110 -157 -269
-115 -392 14 -41 89 -135 100 -125 2 2 -1 22 -7 44 -6 21 -9 71 -7 111 7 98
49 183 124 252 83 76 96 80 67 23 -26 -53 -53 -167 -53 -227 0 -39 1 -38 25
29 71 201 199 350 375 434 66 32 85 37 180 42 l105 6 -55 17 c-30 10 -90 24
-132 33 -104 21 -111 22 -128 24 -11 0 -9 5 7 19 12 10 20 21 17 23 -2 3 9 8
25 11 49 10 138 -19 283 -93 76 -39 140 -70 144 -70 4 0 -3 9 -16 20 -13 11
-28 20 -33 20 -6 0 -7 3 -4 6 4 4 -5 20 -18 36 -14 16 -22 34 -19 39 3 6 0 16
-6 24 -10 12 -8 13 9 10 20 -4 20 -3 6 18 -8 12 -15 29 -15 39 0 9 -8 22 -17
27 -10 6 -14 11 -10 11 4 0 3 9 -3 20 -19 35 6 21 59 -33 68 -70 94 -110 148
-225 37 -80 56 -108 116 -166 82 -80 165 -132 282 -177 114 -44 194 -59 325
-59 191 0 368 49 507 139 79 52 242 209 273 263 34 61 139 218 163 245 17 20
21 20 35 7 13 -14 17 -13 41 9 45 42 136 94 210 121 208 75 439 44 626 -83 30
-21 71 -29 61 -12 -3 5 1 11 9 14 17 7 93 -97 185 -254 63 -107 114 -169 137
-169 8 0 16 -7 19 -15 4 -8 10 -12 15 -9 5 3 9 -2 9 -10 0 -33 182 -150 301
-194 155 -57 371 -68 535 -27 143 35 281 108 378 197 69 63 84 84 136 188 68
136 190 283 190 229 0 -5 -5 -7 -12 -3 -7 5 -8 3 -2 -7 13 -22 14 -43 1 -51
-9 -6 -9 -8 0 -8 10 0 10 -6 1 -26 -10 -21 -9 -27 3 -35 9 -6 10 -9 2 -9 -7 0
-10 -7 -6 -17 4 -11 3 -14 -5 -9 -7 4 -12 1 -12 -8 0 -20 14 -20 30 -1 7 8 17
15 22 15 5 0 46 16 91 36 127 57 231 55 213 -4 -5 -14 -14 -17 -41 -14 -21 3
-35 0 -35 -7 0 -6 11 -11 25 -11 14 0 25 -4 25 -10 0 -6 -31 -10 -72 -10 -39
0 -99 -8 -132 -18 l-61 -17 100 -6 c94 -5 106 -8 170 -44 102 -57 179 -119
230 -185 52 -68 135 -216 135 -242 0 -10 5 -18 11 -18 6 0 8 11 5 27 -2 16 -8
50 -11 76 -4 27 -15 69 -26 94 -11 25 -18 47 -16 49 1 2 31 -22 64 -52 44 -39
72 -74 95 -122 30 -60 33 -75 33 -157 0 -49 -4 -103 -8 -118 l-8 -29 36 28
c20 15 47 48 59 73 61 121 32 270 -79 405 -46 56 -47 58 -17 41 59 -35 160
-148 198 -220 l36 -70 -5 100 c-8 157 -49 280 -150 453 -58 100 -136 193 -274
328 -57 55 -103 103 -103 108 0 4 19 -6 42 -22 69 -47 115 -67 243 -107 172
-54 249 -96 302 -167 l25 -33 -7 50 c-4 27 -18 72 -32 99 -27 54 -130 169
-144 160 -4 -2 -13 5 -19 16 -6 11 -15 18 -20 15 -12 -7 -81 35 -74 46 3 5 -1
6 -9 3 -8 -3 -48 11 -88 32 -159 79 -305 172 -202 129 114 -49 170 -63 335
-80 208 -22 311 -74 379 -188 29 -50 30 -51 24 -17 -21 113 -82 233 -164 316
-92 96 -208 164 -283 168 -29 2 -62 6 -73 11 -75 30 -112 49 -167 88 -35 24
-74 50 -88 57 -48 25 -4 -15 100 -91 55 -40 98 -74 96 -76 -9 -9 -119 62 -190
123 -71 60 -90 84 -66 84 8 0 162 -62 445 -180 108 -45 190 -58 271 -44 48 8
47 8 -42 15 -100 7 -149 23 -104 33 14 3 70 15 124 27 65 14 117 20 150 16
195 -20 335 -214 291 -402 -12 -55 -12 -56 7 -39 31 29 87 153 103 229 26 126
17 239 -31 387 -51 156 -181 307 -334 388 -41 22 -68 40 -60 40 8 1 29 7 45
15 30 13 29 13 -20 10 -27 -3 -41 -2 -30 1 121 33 212 86 315 183 35 34 65 61
67 61 1 0 0 -8 -4 -17 -6 -16 -4 -16 16 1 34 31 90 128 121 214 33 90 70 271
70 340 l0 47 -42 -85 c-75 -153 -235 -287 -398 -334 -48 -14 -206 -47 -220
-46 -3 0 36 22 85 48 50 26 113 64 141 84 123 91 282 291 357 450 76 161 137
396 162 623 14 131 12 378 -4 460 l-8 40 -7 -50 c-21 -152 -29 -192 -52 -263
-33 -100 -118 -269 -180 -362 -53 -79 -201 -233 -247 -257 -16 -8 -37 -13 -48
-11 -16 2 -1 27 93 148 206 264 229 310 280 545 21 100 23 135 23 375 0 263
-6 338 -46 618 -47 331 -87 421 -197 452 -45 12 -222 13 -222 1 0 -5 27 -7 60
-6 33 2 63 -1 66 -6 7 -12 -14 -39 -29 -39 -6 0 -3 6 6 13 15 11 14 12 -13 12
-16 1 -30 0 -30 -2 0 -1 10 -11 22 -23 12 -11 16 -20 9 -20 -7 0 -9 -5 -6 -11
5 -6 12 -4 20 8 13 17 14 17 10 -2 -2 -11 -4 -24 -4 -28 -1 -5 -5 -5 -11 -2
-6 3 -7 -1 -4 -9 3 -9 10 -14 14 -11 4 3 13 -2 20 -11 7 -8 19 -13 26 -10 10
4 11 -1 3 -21 -8 -22 -7 -24 8 -19 14 6 15 4 7 -4 -9 -9 -28 -4 -79 20 -59 28
-76 32 -152 31 -47 0 -113 -5 -147 -11 -216 -38 -492 -178 -664 -337 l-62 -58
-10 -94 c-21 -191 -54 -291 -144 -429 -109 -167 -268 -300 -461 -384 -61 -26
-128 -45 -110 -31 17 13 16 33 -1 26 -8 -3 -14 -2 -13 3 4 22 -2 24 -23 10
-20 -14 -24 -14 -42 2 -18 16 -19 16 -14 -4 4 -17 1 -20 -19 -16 -22 4 -22 5
-6 18 17 13 17 14 -2 7 -11 -3 -26 -10 -32 -16 -10 -7 -13 -3 -13 16 0 23 41
69 70 79 6 2 8 11 5 20 -6 16 -12 15 -58 -8 -28 -15 -68 -37 -88 -51 -21 -14
-49 -26 -63 -27 l-25 -3 27 36 c20 27 22 32 7 21 -11 -8 -26 -22 -33 -30 -11
-13 -12 -12 -3 5 16 33 162 170 226 211 33 22 105 63 160 92 55 29 111 62 125
73 l25 21 -26 -15 c-14 -8 -88 -47 -165 -86 -76 -39 -168 -87 -203 -106 -61
-35 -98 -41 -113 -20 -4 6 -13 2 -22 -10 -13 -19 -14 -18 -9 8 4 21 1 27 -12
27 -12 0 -15 5 -10 20 6 18 -3 25 -27 21 -5 0 -8 3 -8 8 0 4 -11 7 -25 6 -14
-2 -23 1 -19 6 3 5 0 9 -5 9 -6 0 -11 5 -11 11 0 5 5 7 11 3 6 -3 3 5 -6 20
-10 14 -22 26 -27 26 -5 0 -6 5 -3 10 3 6 2 10 -3 10 -11 0 -70 -135 -101
-230 -21 -66 -51 -223 -51 -266 0 -13 -4 -24 -9 -24 -26 0 -16 367 13 505 28
132 87 260 160 345 25 30 43 56 41 59 -9 8 -103 -89 -150 -154 -50 -71 -125
-209 -150 -280 -10 -27 -22 -54 -26 -60 -3 -5 -10 -25 -14 -42 -9 -46 -23 -41
-20 8 4 65 -16 30 -22 -40 -7 -77 -23 -90 -23 -19 -1 44 -3 50 -13 37 -23 -29
-47 -31 -59 -4 -15 34 -24 31 -39 -12 l-13 -38 -9 33 c-6 20 -16 32 -28 32
-38 0 -36 -202 3 -330 48 -157 105 -229 293 -375 144 -112 171 -138 105 -105
-80 41 -183 71 -265 78 l-80 7 85 5 85 5 -34 22 c-64 41 -185 67 -311 67 -114
1 -250 -18 -250 -35 0 -5 -8 -6 -17 -3 -15 5 -15 4 -3 -4 8 -6 17 -9 21 -6 4
2 10 -3 13 -12 4 -10 14 -14 26 -11 11 3 22 1 25 -3 3 -4 14 -6 25 -3 18 5 25
-5 21 -29 -1 -8 15 -12 32 -9 4 0 7 -3 7 -9 0 -5 7 -7 15 -4 8 4 15 1 15 -5 0
-7 -8 -14 -17 -18 -72 -24 -123 -55 -123 -75 0 -16 3 -18 13 -9 8 6 17 8 20 4
4 -3 7 0 7 7 0 10 3 10 13 -2 9 -13 17 -14 37 -6 15 6 20 12 12 15 -7 3 -19
-1 -27 -7 -10 -9 -15 -9 -15 -1 0 15 47 33 153 60 99 25 269 33 288 14 9 -9 1
-12 -37 -11 -46 1 -176 -13 -254 -27 -19 -4 -38 -12 -42 -18 -4 -7 -8 -8 -8
-4 0 5 -7 1 -16 -7 -8 -9 -22 -16 -30 -16 -8 0 -14 -6 -14 -14 0 -9 8 -12 25
-8 14 2 25 8 25 13 0 5 8 9 18 9 10 0 23 5 30 12 9 9 12 9 12 -3 0 -18 38 -22
60 -7 12 10 13 10 3 -2 -15 -17 -17 -30 -4 -30 5 0 13 9 16 20 3 11 10 20 15
20 5 0 6 -8 3 -17 -6 -16 -4 -16 9 -5 14 12 16 10 11 -10 -5 -18 -3 -21 7 -11
10 9 16 8 27 -3 8 -8 25 -14 39 -14 25 0 33 -15 11 -23 -6 -2 2 -4 18 -5 153
-9 241 -22 342 -53 72 -22 202 -86 243 -120 l25 -20 -32 15 c-60 29 -178 56
-258 57 -114 3 -176 -1 -170 -11 3 -5 -3 -13 -12 -19 -12 -7 -14 -10 -4 -11 8
0 20 8 28 18 8 9 12 12 9 6 -3 -7 1 -15 9 -18 9 -3 20 -17 25 -31 6 -16 14
-23 25 -19 9 4 15 1 15 -7 0 -12 2 -12 9 0 6 9 10 4 13 -18 2 -17 0 -36 -5
-43 -6 -9 -7 -7 -3 6 6 18 5 19 -11 4 -10 -8 -39 -19 -65 -22 -95 -14 -52 -21
107 -18 181 4 205 -2 200 -44 -2 -19 3 -28 17 -32 13 -3 16 -7 8 -12 -7 -4
-22 2 -34 14 -20 19 -21 23 -7 39 13 16 13 17 -2 11 -9 -3 -17 -9 -18 -13 0
-3 -2 -14 -4 -23 -2 -10 2 -16 8 -15 7 1 11 -4 9 -11 -1 -8 2 -11 7 -8 5 4 13
1 16 -5 4 -6 17 -8 29 -5 16 4 23 1 23 -9 0 -7 -5 -13 -10 -12 -5 1 -12 -4
-15 -12 -3 -8 0 -11 7 -7 7 5 9 1 5 -8 -3 -9 -10 -16 -16 -16 -5 0 -6 5 -3 10
7 11 -6 13 -29 4 -9 -3 -14 -9 -12 -13 3 -4 -50 -8 -117 -10 -106 -2 -251 -22
-266 -36 -12 -13 10 -12 74 2 86 18 307 12 405 -12 132 -32 332 -120 400 -176
14 -11 -18 2 -70 29 -107 55 -216 96 -232 86 -6 -4 -14 0 -19 7 -7 11 -9 10
-9 -5 0 -15 -6 -17 -34 -14 -24 3 -32 0 -29 -9 3 -7 9 -11 13 -8 4 3 11 -2 14
-11 3 -8 10 -12 16 -9 6 4 8 10 6 14 -3 4 1 8 8 8 7 0 13 -6 13 -13 0 -7 -4
-11 -8 -9 -4 3 -9 -2 -13 -10 -3 -8 -16 -15 -28 -16 -13 0 -17 -3 -10 -6 6 -2
12 -11 12 -18 0 -7 6 -16 13 -19 6 -4 -6 -4 -28 -1 -22 3 -70 7 -108 9 -57 3
-65 1 -50 -10 16 -12 16 -13 -4 -7 -15 3 -25 0 -29 -10 -6 -17 -44 -11 -44 7
0 6 -5 3 -11 -7 -13 -22 -2 -40 22 -34 11 3 17 2 14 -2 -5 -9 38 -31 61 -31 8
0 57 -20 109 -44 76 -36 95 -49 95 -66 0 -12 4 -19 9 -16 5 3 12 -1 15 -9 4
-12 2 -13 -13 -6 -21 12 -32 5 -25 -14 3 -7 1 -16 -5 -20 -7 -3 -8 0 -5 9 3 9
1 16 -5 16 -6 0 -11 -5 -11 -11 0 -5 -4 -7 -10 -4 -5 3 -10 11 -10 16 0 6 4 8
9 5 4 -3 16 0 25 7 14 10 11 12 -18 12 -19 0 -33 -2 -31 -4 3 -2 -2 -16 -10
-32 -10 -18 -20 -26 -30 -23 -8 4 -15 8 -15 11 0 3 7 2 16 -1 8 -3 12 -2 9 4
-15 24 -41 7 -36 -23 1 -4 -8 -3 -18 3 -14 7 -22 7 -27 -2 -4 -7 -3 -8 4 -4 7
4 12 2 12 -4 0 -7 -7 -9 -16 -6 -9 4 -24 1 -33 -6 -9 -8 -8 -3 4 11 l20 24
-20 -10 c-11 -6 -26 -8 -32 -6 -7 3 -13 0 -13 -7 0 -6 4 -9 8 -6 5 3 9 -1 9
-9 0 -11 -7 -9 -28 6 -15 10 -31 19 -36 19 -4 0 -2 -4 6 -9 17 -11 6 -31 -18
-31 -12 0 -22 -12 -29 -38 -21 -70 -71 -115 -199 -177 -65 -31 -148 -77 -184
-101 -78 -52 -212 -188 -264 -270 -72 -111 -132 -264 -150 -384 -4 -25 -12
-56 -18 -70 -6 -14 -9 -30 -8 -37 1 -6 -8 -15 -20 -18 -14 -5 -19 -13 -16 -26
3 -10 1 -19 -4 -19 -5 0 -9 8 -10 18 0 9 -2 26 -5 37 -9 43 -10 226 -2 335 21
303 110 610 225 780 17 25 17 25 -3 5 -11 -11 -29 -35 -39 -53 -11 -17 -23
-32 -27 -32 -4 0 -8 -7 -8 -15 0 -9 -7 -18 -15 -21 -8 -4 -15 -12 -15 -20 0
-8 -5 -14 -11 -14 -5 0 -7 -5 -3 -12 4 -6 -4 -3 -18 8 -21 15 -24 23 -17 42
13 33 11 36 -7 18 -8 -9 -22 -16 -30 -16 -8 0 -14 -5 -14 -11 0 -5 -6 -7 -12
-3 -9 5 -8 2 1 -10 10 -12 16 -14 21 -5 5 7 10 8 14 1 3 -5 -2 -13 -11 -16 -9
-4 -20 -1 -24 6 -6 10 -15 6 -34 -14 -32 -34 -37 -35 -25 -3 30 79 121 220
187 291 78 83 213 198 264 224 17 10 28 20 23 23 -9 5 -85 -40 -159 -94 -62
-45 -219 -217 -266 -289 -26 -41 -53 -81 -59 -87 -6 -7 -11 -16 -11 -20 -1
-16 -32 -73 -39 -73 -5 0 -11 6 -14 13 -4 6 -4 -3 -1 -20 2 -18 1 -33 -4 -33
-7 0 -11 15 -12 53 0 10 -6 16 -12 14 -7 -3 -11 -8 -10 -13 0 -5 -5 -15 -13
-22 -17 -15 -17 -12 -4 24 9 24 9 25 -5 14 -8 -7 -15 -9 -15 -4 -1 5 -8 -4
-16 -19 -14 -27 -42 -33 -37 -8 2 6 -6 11 -17 11 -11 0 -20 5 -20 11 0 5 4 8
9 4 15 -9 25 15 12 28 -9 9 -14 8 -21 -2 -7 -12 -12 -12 -23 -3 -12 10 -17 8
-30 -11 -10 -16 -12 -28 -6 -34 6 -6 4 -10 -5 -10 -8 0 -13 3 -11 7 2 3 0 12
-6 20 -7 13 -9 12 -9 -1 0 -9 -8 -19 -18 -21 -18 -5 -18 -3 -1 59 24 87 59
186 70 197 5 6 9 15 9 20 -1 16 -40 -34 -40 -50 0 -8 -4 -14 -10 -14 -5 0 -10
-4 -10 -10 0 -29 -56 -119 -90 -145 -22 -16 -39 -36 -40 -42 0 -7 -5 -13 -11
-13 -7 0 -9 10 -7 25 6 30 -16 55 -26 29 -3 -9 -4 -20 0 -25 3 -5 -4 -9 -15
-9 -15 0 -19 5 -16 20 2 11 0 18 -4 15 -5 -3 -12 6 -15 20 -4 14 -11 25 -16
25 -5 0 -7 9 -5 20 2 11 0 20 -6 20 -5 0 -9 7 -9 15 0 8 -5 15 -11 15 -5 0 -8
-4 -4 -9 3 -5 1 -12 -5 -16 -5 -3 -10 3 -10 14 0 12 -5 21 -10 21 -13 0 -8
-30 15 -96 22 -63 31 -134 16 -134 -6 0 -11 5 -11 10 0 6 -11 15 -25 22 -13 6
-22 15 -19 19 9 15 -4 10 -22 -8 -17 -17 -18 -17 -11 1 6 16 4 17 -20 11 -15
-3 -33 -15 -41 -26 -8 -12 -20 -18 -29 -15 -8 3 -23 1 -34 -4 -11 -6 -19 -7
-18 -3 3 20 -2 24 -16 13 -13 -11 -15 -10 -9 6 5 16 4 16 -5 4 -6 -8 -11 -23
-11 -32 0 -10 -5 -18 -11 -18 -6 0 -8 9 -4 21 4 13 3 19 -2 16 -8 -5 -34 32
-37 53 -2 12 -82 150 -119 205 -79 118 -240 262 -358 320 l-34 16 40 -35 c22
-20 43 -36 46 -36 8 0 60 -43 137 -115 110 -102 213 -259 247 -380 10 -33 22
-66 27 -72 7 -9 7 -13 -2 -13 -7 0 -10 -7 -6 -16 3 -9 2 -12 -5 -9 -5 4 -7 16
-3 27 4 13 2 18 -4 14 -6 -3 -14 -1 -18 5 -5 8 -3 9 6 4 23 -14 2 48 -25 71
-13 12 -21 25 -17 28 3 4 -1 4 -11 0 -9 -3 -17 -1 -17 4 0 6 -9 10 -20 9 -18
-1 -18 -11 1 -13 5 -1 12 -2 15 -3 10 -2 -24 -31 -38 -31 -9 0 -10 2 -1 8 8 5
8 11 -1 24 -7 10 -16 15 -19 11 -4 -3 -7 -1 -7 5 0 5 6 13 13 15 6 3 2 6 -10
6 -13 1 -23 -5 -23 -11 0 -9 -4 -8 -10 2 -5 8 -10 11 -10 5 -1 -5 -12 12 -26
38 -42 81 -37 46 5 -39 44 -89 93 -232 116 -344 41 -193 60 -575 31 -599 -11
-10 -17 -8 -25 6 -6 10 -11 14 -11 8 -4 -37 -9 -68 -13 -71 -2 -2 -9 29 -16
68 -18 105 -76 283 -120 369 -98 193 -232 315 -479 439 -153 77 -222 143 -222
215 0 22 -3 26 -9 16 -7 -12 -13 -12 -24 -3 -7 7 -17 9 -20 5 -4 -3 -7 -1 -7
6 0 7 -4 10 -9 7 -5 -3 -14 1 -21 9 -14 17 -40 20 -40 5 0 -7 -6 -7 -19 0 -11
5 -31 11 -45 12 -13 1 -24 7 -23 13 1 5 -9 9 -22 7 -17 -1 -22 2 -17 13 7 18
-5 20 -23 3 -10 -9 -12 -9 -7 -1 3 6 2 14 -4 18 -5 3 -10 -1 -10 -9 0 -8 -4
-18 -10 -21 -5 -3 -7 0 -4 8 3 8 -6 18 -21 25 -14 6 -25 15 -25 20 0 12 102
59 184 86 108 36 243 63 324 65 12 1 22 6 22 11 0 6 -11 8 -25 4 -17 -4 -32
-1 -43 8 -20 18 -105 32 -96 16 4 -5 -4 -5 -16 2 -17 9 -57 11 -144 6 -67 -4
-131 -9 -142 -12 -28 -7 -39 29 -15 48 14 11 14 11 5 -2 -9 -11 -9 -18 1 -27
13 -12 25 -7 25 9 0 5 -5 6 -10 3 -12 -7 -9 23 5 45 8 13 7 13 -8 1 -15 -11
-17 -11 -17 2 0 8 6 18 13 20 9 4 9 6 -1 6 -8 1 -16 -8 -19 -19 -3 -11 -9 -20
-14 -20 -12 0 2 33 18 43 7 5 11 12 9 16 -3 4 1 8 9 8 8 0 12 -4 9 -8 -2 -4 4
-7 15 -6 15 1 17 4 7 19 -16 28 -73 17 -218 -42 -67 -27 -124 -47 -125 -46 -7
6 117 66 197 96 119 43 216 60 350 60 168 0 341 -37 468 -100 24 -12 46 -19
49 -16 14 14 -187 90 -322 122 -58 14 -119 19 -222 19 -136 0 -142 1 -121 17
13 9 19 20 15 24 -4 4 -7 2 -7 -4 0 -7 -10 -12 -22 -12 -19 0 -20 2 -8 10 8 5
12 10 8 10 -4 0 4 12 17 26 13 14 28 24 32 21 4 -2 17 5 27 16 16 17 17 19 3
14 -9 -3 -17 -2 -17 3 0 6 9 10 20 10 11 0 20 6 20 13 0 9 2 9 9 -1 6 -10 10
-9 14 8 5 20 9 21 152 17 80 -3 145 -3 143 -2 -4 4 -119 36 -139 39 -9 1 -24
10 -33 19 -16 16 -16 17 1 18 43 3 48 5 45 18 -5 22 29 40 57 30 21 -8 22 -8
11 6 -10 12 -10 15 4 15 9 0 16 8 16 19 0 16 -10 21 -57 27 -130 16 -307 -9
-408 -58 l-40 -19 30 26 c17 14 71 46 120 71 107 53 227 81 365 83 60 1 99 6
105 14 6 7 22 12 37 11 23 -1 26 2 17 17 -8 15 -6 17 7 12 13 -5 15 -3 9 8 -6
11 -5 12 6 2 7 -7 17 -13 22 -13 4 0 5 6 1 13 -6 10 -4 10 7 0 16 -15 33 -17
24 -3 -3 6 3 10 15 10 12 0 18 5 15 10 -8 12 5 13 25 0 9 -5 19 -5 26 1 15 12
85 3 96 -13 7 -12 12 -4 9 15 0 4 3 7 8 7 14 0 21 -26 10 -37 -6 -6 -4 -10 5
-10 8 0 13 4 10 9 -3 4 0 8 5 8 6 0 11 -8 11 -17 0 -14 2 -15 9 -5 6 11 10 10
15 -3 4 -11 13 -15 26 -12 12 3 20 0 20 -8 0 -7 7 -16 16 -19 25 -9 54 -7 54
5 0 5 5 7 10 4 6 -4 8 -11 5 -16 -11 -16 7 -9 21 9 8 10 13 12 14 5 0 -19 38
-16 48 4 8 13 3 20 -22 35 -36 21 -127 65 -208 102 -36 16 -58 32 -58 42 0 12
7 15 24 12 17 -4 23 -1 19 9 -3 7 2 13 12 13 9 0 14 -4 11 -9 -4 -5 3 -7 14
-4 11 3 20 12 20 20 0 8 -5 11 -12 7 -6 -4 -8 -3 -5 3 3 5 27 10 53 11 32 0
43 -3 33 -9 -12 -7 -11 -9 2 -9 22 0 28 8 22 30 -6 24 -34 35 -45 18 -6 -10
-8 -9 -8 3 0 12 -20 20 -82 33 -118 23 -215 20 -333 -9 -98 -25 -251 -91 -284
-123 -16 -16 -84 -52 -98 -52 -11 0 117 97 203 154 44 30 97 73 117 96 79 92
136 239 152 393 8 75 -3 234 -15 203 -5 -15 -8 -17 -15 -6 -6 9 -13 0 -26 -31
-10 -24 -18 -39 -19 -34 -6 42 -20 75 -20 46 0 -7 -4 -9 -10 -6 -5 3 -10 1
-10 -4 0 -17 -21 -13 -36 7 -12 15 -15 15 -24 2 -5 -8 -10 -31 -10 -50 -1 -46
-13 -24 -29 53 -10 46 -16 57 -30 55 -22 -4 -51 19 -51 39 0 21 -86 191 -117
232 -58 76 -125 152 -130 147 -3 -2 9 -22 25 -43 57 -71 102 -180 128 -308 18
-90 29 -407 16 -460 l-10 -40 -1 36 c-2 61 -31 196 -58 272 -27 76 -80 187
-88 187 -3 0 2 -14 11 -31 15 -29 15 -31 0 -26 -9 4 -16 2 -16 -3 0 -5 -12
-13 -26 -16 -15 -4 -23 -12 -20 -19 2 -7 -4 -15 -14 -18 -12 -3 -21 1 -24 12
-3 9 -4 2 -2 -16 1 -20 -3 -34 -11 -38 -11 -3 -13 1 -8 18 4 12 3 17 -2 11 -4
-6 -18 -15 -31 -18 -18 -6 -21 -11 -12 -21 8 -10 8 -15 -1 -21 -7 -4 -9 -3 -6
3 4 6 -2 13 -13 16 -22 6 -37 -8 -18 -16 9 -4 9 -6 1 -6 -6 -1 -18 6 -27 14
-8 8 -20 15 -26 15 -6 0 -48 21 -93 47 -98 56 -288 152 -282 143 2 -4 58 -37
124 -75 137 -77 269 -179 314 -242 33 -46 30 -68 -5 -37 -21 19 -21 19 -16 -3
5 -17 2 -21 -13 -18 -11 2 -32 12 -47 22 -15 10 -45 26 -67 37 -22 10 -48 22
-57 27 -12 6 -18 5 -18 -1 0 -5 8 -18 18 -28 73 -78 89 -99 76 -99 -8 0 -14 5
-14 10 0 6 -8 3 -18 -6 -12 -11 -22 -13 -32 -7 -8 5 -25 10 -38 10 -14 0 -21
4 -16 11 4 7 -1 9 -12 7 -11 -2 -18 -10 -16 -17 1 -7 -2 -10 -8 -6 -6 3 -8 10
-5 15 3 5 -3 8 -14 7 -16 -1 -18 -4 -8 -16 10 -12 9 -13 -1 -7 -8 5 -24 3 -38
-4 -30 -17 -78 1 -199 73 -198 117 -358 294 -431 475 -36 91 -74 251 -74 318
l0 62 -92 75 c-51 41 -121 93 -154 115 -197 131 -439 214 -625 215 -87 1 -102
-2 -155 -28 -33 -16 -63 -28 -67 -27 -5 1 -6 -2 -3 -7 3 -5 -2 -15 -11 -22 -9
-8 -17 -12 -19 -9 -1 3 -6 1 -11 -4 -5 -5 -3 -6 5 -2 17 10 15 -1 -6 -32 -10
-15 -24 -39 -32 -55 -9 -19 -17 -24 -24 -17 -7 7 -6 14 2 22 7 7 12 8 12 3 0
-27 36 62 39 98 1 4 8 7 16 7 8 0 15 7 15 15 0 23 22 65 31 59 17 -10 9 9 -8
21 -15 11 -15 15 -4 29 7 9 10 16 7 16 -4 0 -1 6 6 13 15 17 38 18 58 3 13 -9
13 -9 3 5 -7 9 -9 20 -5 24 4 5 2 5 -5 1 -6 -3 -15 -1 -19 5 -5 8 1 10 20 7
14 -3 26 -2 26 3 0 4 8 10 18 12 9 3 -21 5 -68 6 -63 0 -96 -4 -126 -18z
m7777 -104 c-10 -9 -11 -8 -5 6 3 10 9 15 12 12 3 -3 0 -11 -7 -18z m57 -122
c-3 -3 -9 2 -12 12 -6 14 -5 15 5 6 7 -7 10 -15 7 -18z m-7853 -263 c-3 -3
-11 0 -18 7 -9 10 -8 11 6 5 10 -3 15 -9 12 -12z m-4 -306 c0 -3 4 -19 9 -36
5 -18 5 -30 -1 -30 -13 0 -11 -28 2 -32 6 -2 17 -35 24 -73 16 -87 19 -98 40
-160 33 -97 97 -241 156 -353 57 -108 69 -139 50 -128 -5 3 -12 -11 -16 -32
-4 -20 -10 -31 -12 -24 -3 6 -9 10 -14 6 -5 -3 -12 2 -15 10 -3 9 -13 16 -21
16 -9 0 -13 6 -9 15 3 9 0 15 -9 15 -8 0 -15 5 -15 12 0 6 -3 8 -6 5 -4 -4 -1
-13 6 -22 7 -8 9 -15 5 -15 -4 0 0 -11 9 -25 9 -14 13 -25 9 -25 -5 0 -3 -4 2
-8 6 -4 18 -26 27 -50 l17 -42 -30 21 c-16 11 -29 25 -29 30 0 5 -7 9 -15 9
-8 0 -15 5 -15 12 0 9 -3 9 -11 1 -9 -9 -6 -20 9 -45 14 -23 18 -38 12 -48 -6
-8 -10 -10 -10 -4 0 6 -18 43 -41 82 -22 38 -43 85 -46 104 -3 18 -18 73 -35
122 -16 50 -30 115 -31 147 -1 31 -5 55 -10 52 -4 -2 -6 6 -4 18 2 13 -2 43
-10 68 -13 46 -10 67 8 41 7 -11 8 -5 3 20 -3 19 -9 40 -12 45 -4 6 -7 15 -8
20 -6 30 -24 104 -30 118 -3 10 -1 17 6 17 6 0 9 -4 6 -9 -3 -5 1 -14 9 -21 8
-7 12 -17 8 -22 -3 -6 0 -9 8 -6 16 5 19 50 4 60 -5 4 2 8 18 8 15 0 27 4 27
8 0 4 -15 8 -32 8 -24 0 -32 4 -30 14 2 8 4 23 5 32 1 10 8 20 15 23 10 4 12
0 7 -12 -15 -39 -15 -47 0 -20 12 20 13 32 5 46 -7 14 -7 22 0 26 6 4 7 12 4
18 -4 7 -4 9 0 5 4 -3 8 -9 7 -12z m-60 -55 c-7 -5 -17 -15 -22 -22 -6 -10 -8
-8 -7 7 1 12 10 21 22 22 15 1 17 -1 7 -7z m7982 -18 c-4 -11 -3 -14 5 -9 7 4
12 2 12 -4 0 -6 4 -8 10 -5 6 4 7 -1 3 -11 -4 -12 -3 -15 6 -10 7 5 11 17 8
27 -3 12 0 19 10 19 8 0 12 -4 8 -9 -3 -5 -8 -49 -11 -98 -3 -48 -15 -123 -25
-167 -21 -83 -21 -115 0 -45 23 77 20 33 -5 -77 -14 -60 -27 -145 -28 -189 -2
-58 -10 -94 -26 -130 -13 -28 -24 -53 -24 -56 -4 -23 -93 -178 -101 -176 -15
6 -6 38 19 72 31 41 48 75 38 75 -4 0 -21 -18 -38 -39 -16 -22 -32 -37 -36
-34 -5 2 -8 -1 -8 -6 0 -6 -7 -11 -16 -11 -8 0 -12 5 -9 10 3 6 1 10 -5 10 -5
0 6 33 27 73 20 39 38 81 39 92 2 11 -5 4 -14 -15 -9 -19 -20 -36 -24 -38 -5
-2 -8 -10 -8 -18 0 -9 -4 -12 -10 -9 -5 3 -10 -1 -10 -9 0 -9 -4 -16 -10 -16
-5 0 -10 4 -10 9 0 5 -8 11 -19 14 -31 8 -18 71 37 182 69 139 106 226 137
325 14 47 30 95 35 107 5 11 14 57 21 102 7 45 16 81 20 81 5 0 5 -7 2 -17z
m74 -115 c-3 -8 -6 -5 -6 6 -1 11 2 17 5 13 3 -3 4 -12 1 -19z m-10 -70 c-3
-8 -6 -5 -6 6 -1 11 2 17 5 13 3 -3 4 -12 1 -19z m-2342 -108 c3 -5 1 -10 -4
-10 -6 0 -11 5 -11 10 0 6 2 10 4 10 3 0 8 -4 11 -10z m-5000 -455 c32 -93 85
-235 117 -315 33 -80 65 -158 71 -175 7 -16 19 -37 28 -45 9 -8 40 -44 69 -80
29 -36 60 -71 69 -78 14 -11 13 -12 -4 -4 -11 5 -26 7 -34 4 -9 -3 -11 0 -7 7
5 7 2 10 -6 9 -8 -2 -12 5 -10 17 2 12 0 16 -5 9 -4 -5 -18 -17 -30 -25 l-23
-16 26 -12 c24 -10 26 -10 20 6 -5 13 -4 15 4 7 19 -19 2 -39 -35 -38 -35 1
-95 32 -64 33 8 1 20 -4 27 -11 9 -9 12 -9 12 0 0 6 -12 15 -27 18 -16 4 -34
11 -41 17 -7 5 -14 8 -17 6 -5 -5 106 -122 158 -167 47 -40 26 -42 -35 -3 -25
16 -71 42 -101 59 -31 16 -77 47 -102 70 -39 35 -51 40 -76 35 -24 -5 -35 0
-63 28 -18 19 -43 43 -56 54 l-23 20 13 -25 c19 -36 196 -211 255 -250 28 -19
97 -59 155 -88 58 -30 94 -52 80 -49 -14 2 -60 12 -104 21 -43 10 -85 15 -94
11 -8 -3 -23 2 -34 12 -18 16 -18 16 -12 0 3 -10 1 -17 -5 -17 -6 0 -11 4 -11
8 0 11 -39 12 -45 1 -4 -5 -11 -6 -17 -3 -6 4 -8 -1 -3 -15 5 -15 2 -21 -10
-21 -9 0 -13 5 -10 10 4 6 -9 10 -32 10 -21 0 -45 5 -53 10 -8 5 -12 10 -9 10
3 0 -10 18 -31 39 -20 22 -56 76 -80 120 -25 43 -49 77 -54 73 -5 -3 -7 2 -3
11 3 10 3 17 -1 17 -10 0 -48 149 -62 240 -20 132 -10 428 18 500 3 8 5 18 4
22 -2 10 30 -2 50 -19 15 -13 16 -13 12 9 -2 12 -2 17 2 11 7 -15 34 -18 34
-4 0 5 -6 12 -12 14 -8 3 -7 6 4 6 9 1 20 5 23 11 4 6 -1 7 -11 3 -11 -4 -15
-2 -11 4 4 6 18 11 32 11 23 0 24 -2 8 -13 -10 -8 -15 -17 -10 -21 4 -4 -1
-16 -10 -26 -16 -18 -16 -18 0 -12 10 3 20 17 23 30 7 26 23 31 43 12 8 -7 11
-8 8 -3 -3 6 4 17 16 25 20 12 21 12 9 -3 -10 -12 -10 -17 -1 -23 8 -5 9 -3 4
6 -6 10 -4 12 9 7 15 -6 17 -4 11 10 -4 10 -8 29 -11 43 -4 27 -10 59 -18 93
-14 57 47 -96 99 -248z m6746 193 c1 -18 0 -37 -1 -43 -1 -5 -3 -17 -5 -27 -4
-20 32 -31 39 -12 3 8 0 11 -8 8 -8 -3 -17 -1 -21 5 -3 6 -1 12 4 12 6 1 16 3
21 4 6 1 13 3 17 4 4 0 -1 7 -11 14 -17 12 -15 13 13 13 22 0 30 -4 27 -12 -3
-8 1 -11 9 -7 10 3 18 -5 25 -22 7 -20 14 -24 23 -17 6 5 22 8 34 6 20 -3 21
0 18 34 -3 20 6 -5 20 -57 27 -105 45 -267 39 -351 -12 -164 -32 -322 -43
-330 -4 -3 -13 -34 -20 -70 -7 -36 -16 -67 -19 -70 -4 -3 -8 -11 -10 -19 -6
-28 -72 -117 -127 -173 -57 -57 -96 -75 -136 -63 -16 6 -20 4 -14 -6 5 -8 -1
-5 -12 6 -11 11 -18 27 -15 35 4 12 2 13 -9 3 -16 -16 -71 -17 -86 -2 -8 8
-17 8 -32 -1 -12 -6 -27 -9 -34 -7 -7 2 -32 -2 -57 -8 -116 -32 -116 -32 35
51 55 30 132 78 170 107 69 52 198 177 190 185 -2 2 -15 -8 -30 -23 -14 -16
-28 -25 -32 -22 -3 4 1 15 10 25 10 10 17 23 17 29 0 6 7 16 15 23 9 7 13 15
10 18 -3 3 -17 -8 -31 -24 -15 -16 -23 -22 -18 -14 7 13 6 13 -10 0 -11 -8
-14 -16 -7 -18 6 -2 11 -8 11 -14 0 -6 -6 -8 -14 -5 -8 3 -36 -11 -63 -32 -62
-48 -175 -127 -220 -152 -19 -11 -45 -27 -59 -35 -40 -27 -27 1 15 30 52 37
179 181 152 174 -5 -2 -16 6 -24 17 -13 16 -17 17 -31 6 -11 -9 -16 -10 -16
-2 0 14 -43 14 -57 0 -6 -6 -17 -8 -23 -4 -9 5 -5 14 13 31 28 26 120 201 167
319 18 44 61 163 95 265 85 248 86 250 96 250 5 0 10 -15 10 -32z m-6857 -53
c-4 -8 -10 -15 -16 -15 -5 0 -6 -5 -2 -12 5 -7 3 -8 -5 -4 -9 6 -8 13 5 27 21
23 25 24 18 4z m1405 1 c10 -12 8 -13 -8 -9 -12 3 -21 9 -21 14 0 14 16 11 29
-5z m5614 -1 c-3 -9 -8 -14 -10 -11 -3 3 -2 9 2 15 9 16 15 13 8 -4z m-7133
-25 c0 -5 -2 -10 -4 -10 -3 0 -8 5 -11 10 -3 6 -1 10 4 10 6 0 11 -4 11 -10z
m-32 -25 c-3 -3 -9 2 -12 12 -6 14 -5 15 5 6 7 -7 10 -15 7 -18z m681 -287
c15 -36 109 -157 154 -200 49 -47 160 -116 245 -152 87 -37 250 -85 292 -87
23 0 23 -1 5 -8 -45 -19 -225 17 -347 68 -58 25 -74 28 -87 18 -10 -8 -12 -8
-8 -1 8 14 -20 27 -35 17 -7 -4 -8 -1 -4 6 5 8 3 12 -5 10 -37 -5 -61 2 -56
15 4 9 0 13 -11 11 -23 -3 -42 13 -35 31 4 10 0 12 -11 8 -9 -3 -16 -1 -16 6
0 6 -4 8 -10 5 -6 -3 -7 1 -4 9 4 10 1 16 -8 16 -16 0 -37 44 -62 125 -32 108
-30 180 3 103z m5800 -72 c-22 -107 -86 -219 -126 -222 -29 -2 -32 -5 -27 -19
7 -16 -11 -21 -21 -5 -4 6 -12 6 -23 0 -36 -20 -230 -90 -288 -105 -87 -21
-246 -37 -258 -25 -7 7 -2 10 12 10 43 0 232 50 314 83 46 19 109 50 140 70
82 52 186 155 238 234 50 76 59 71 39 -21z m889 49 c-3 -3 -9 2 -12 12 -6 14
-5 15 5 6 7 -7 10 -15 7 -18z m-3034 -21 c3 -8 2 -12 -4 -9 -6 3 -10 10 -10
16 0 14 7 11 14 -7z m3279 -104 c-20 -27 -40 -50 -44 -50 -4 0 -20 -13 -35
-28 -42 -42 -105 -87 -99 -71 3 8 23 27 44 43 21 15 67 57 102 92 35 35 65 64
66 64 2 0 -13 -22 -34 -50z m-3148 20 c3 -5 1 -10 -4 -10 -6 0 -11 5 -11 10 0
6 2 10 4 10 3 0 8 -4 11 -10z m-1810 -36 c33 -8 80 -22 104 -31 40 -15 42 -17
21 -25 -13 -5 -26 -5 -29 0 -3 5 -19 12 -36 16 -94 22 -177 35 -225 36 -30 0
-73 3 -95 7 l-40 8 40 6 c55 10 188 1 260 -17z m-2894 -321 c59 -50 117 -106
130 -125 13 -18 17 -28 9 -22 -8 6 -44 33 -80 60 -146 108 -340 284 -315 284
6 0 5 4 -1 8 -12 8 -64 83 -64 92 0 3 48 -42 108 -100 59 -58 155 -147 213
-197z m-171 297 c0 -5 -2 -10 -4 -10 -3 0 -8 5 -11 10 -3 6 -1 10 4 10 6 0 11
-4 11 -10z m8067 -86 c-51 -79 -127 -155 -242 -239 -44 -32 -92 -70 -107 -84
-16 -14 -28 -20 -28 -14 0 6 53 60 117 120 64 59 158 149 207 198 50 50 92 89
94 89 2 -1 -17 -33 -41 -70z m-3099 54 c-2 -6 -10 -14 -16 -16 -7 -2 -10 2 -6
12 7 18 28 22 22 4z m-1588 -68 c0 -5 -5 -10 -11 -10 -5 0 -7 5 -4 10 3 6 8
10 11 10 2 0 4 -4 4 -10z m-40 -30 c8 -5 11 -10 5 -10 -5 0 -17 5 -25 10 -8 5
-10 10 -5 10 6 0 17 -5 25 -10z m2552 -376 c97 -25 122 -27 423 -34 348 -7
353 -8 483 -74 54 -27 210 -171 199 -183 -4 -3 -24 10 -46 30 -49 44 -148 91
-223 105 -32 6 -117 16 -190 22 -203 17 -357 38 -444 61 -44 12 -99 25 -124
29 -43 8 -189 55 -199 65 -9 10 20 4 121 -21z m-3745 5 c-48 -28 -375 -107
-493 -119 -255 -26 -383 -42 -442 -55 -62 -15 -136 -47 -146 -64 -3 -5 -29
-29 -58 -53 l-52 -43 20 34 c35 62 122 147 182 179 130 70 155 74 507 82 276
7 330 10 390 28 39 11 79 20 90 21 18 0 19 0 2 -10z m-1412 -68 c7 -12 -12
-24 -25 -16 -11 7 -4 25 10 25 5 0 11 -4 15 -9z m5386 -41 c108 -36 220 -62
314 -74 120 -15 136 -19 126 -29 -17 -17 -197 -12 -271 7 -36 10 -110 38 -165
64 -96 44 -182 92 -140 77 11 -4 72 -24 136 -45z m-4131 35 c0 -8 -195 -97
-255 -116 -91 -28 -201 -41 -284 -33 l-74 7 39 12 c21 7 59 16 84 19 161 22
306 53 401 86 46 15 85 29 87 29 1 1 2 -1 2 -4z m335 -14 c3 -5 1 -12 -5 -16
-5 -3 -10 1 -10 9 0 18 6 21 15 7z m3495 -151 c0 -5 -7 -7 -15 -4 -8 4 -15 8
-15 10 0 2 7 4 15 4 8 0 15 -4 15 -10z m20 -40 c0 -5 -4 -10 -10 -10 -5 0 -10
5 -10 10 0 6 5 10 10 10 6 0 10 -4 10 -10z m-3617 -25 c-3 -9 -8 -14 -10 -11
-3 3 -2 9 2 15 9 16 15 13 8 -4z m27 -25 c0 -5 -5 -10 -11 -10 -5 0 -7 5 -4
10 3 6 8 10 11 10 2 0 4 -4 4 -10z m5629 -76 c-86 -95 -331 -204 -533 -239
-136 -23 -142 -17 -19 19 162 48 385 138 483 195 47 27 87 50 89 50 3 1 -6
-11 -20 -25z m-7624 -78 c127 -59 250 -105 379 -142 l121 -35 -70 6 c-175 15
-384 93 -517 194 -77 58 -102 89 -37 44 24 -17 80 -47 124 -67z m7250 74 c-3
-5 0 -10 7 -11 10 0 11 -2 0 -6 -9 -3 -6 -11 10 -27 13 -12 24 -28 26 -34 4
-21 -199 -102 -323 -128 -116 -25 -174 -26 -159 -3 3 5 0 9 -6 9 -13 0 -3 41
12 51 6 4 5 8 -3 11 -51 17 128 77 439 147 2 1 0 -3 -3 -9z m-7021 -11 c20 15
200 -28 364 -87 61 -22 72 -30 72 -49 0 -14 -6 -23 -15 -23 -9 0 -15 -9 -15
-25 0 -26 -4 -28 -60 -25 -78 4 -295 70 -366 112 -31 18 -34 24 -32 58 3 32 5
36 17 27 12 -10 13 -9 7 8 -6 16 -5 17 5 8 7 -7 17 -9 23 -4z m1061 -99 c-33
-33 -67 -60 -75 -60 -12 0 -12 -2 -2 -8 21 -14 -217 -248 -308 -303 -146 -88
-334 -158 -485 -179 -44 -6 -125 -19 -180 -29 -55 -10 -101 -18 -102 -17 -7 5
282 153 371 191 113 47 139 61 96 51 -14 -3 -83 -17 -155 -30 -71 -14 -151
-32 -178 -40 -51 -15 -77 -15 -79 0 0 5 10 15 23 22 23 12 22 13 -11 7 -31 -6
-33 -5 -17 7 17 12 24 32 26 66 2 23 85 52 279 97 103 24 259 67 347 95 88 29
196 63 240 76 44 13 118 44 165 68 47 25 90 45 95 45 6 1 -17 -26 -50 -59z
m4991 -3 c149 -64 486 -168 731 -226 118 -28 267 -86 301 -118 26 -24 26 -24
5 -20 -26 6 -31 -8 -8 -17 8 -3 15 -16 15 -28 0 -19 2 -20 10 -8 11 17 13 10
4 -13 -4 -12 -12 -13 -37 -6 -21 6 -33 5 -35 -1 -2 -5 -8 -10 -13 -10 -6 0 -7
5 -3 12 4 7 3 8 -5 4 -6 -4 -33 -1 -59 8 -50 17 -193 51 -252 61 -19 3 -48 8
-65 11 -44 7 -14 -9 93 -52 80 -33 366 -183 359 -190 -1 -2 -22 2 -46 7 -24 5
-124 23 -222 40 -239 40 -378 97 -522 214 -100 81 -387 390 -347 373 8 -4 52
-22 96 -41z m-721 -15 c-3 -3 -11 0 -18 7 -9 10 -8 11 6 5 10 -3 15 -9 12 -12z
m1240 -12 c3 -5 1 -10 -4 -10 -6 0 -11 5 -11 10 0 6 2 10 4 10 3 0 8 -4 11
-10z m-6130 -70 c3 -5 1 -10 -4 -10 -6 0 -11 5 -11 10 0 6 2 10 4 10 3 0 8 -4
11 -10z m538 -107 c-54 -83 -111 -153 -163 -198 -42 -37 -41 -35 11 22 31 34
84 100 118 147 35 47 64 86 67 86 2 0 -13 -26 -33 -57z m1002 -67 c54 -25 155
-98 195 -141 l25 -26 -30 11 c-17 7 -73 14 -126 17 -82 5 -110 2 -199 -21
-100 -26 -251 -92 -287 -126 -20 -18 -48 -16 -36 3 4 7 0 8 -11 4 -11 -4 -15
-3 -11 4 4 6 -1 19 -10 29 -9 10 -14 24 -10 30 4 6 1 18 -7 27 -11 14 -11 16
3 11 9 -3 16 -1 17 5 3 33 11 46 52 83 95 85 166 112 295 113 74 1 99 -3 140
-23z m2169 -16 c-6 -5 -24 21 -24 34 0 6 6 1 14 -10 8 -10 12 -21 10 -24z
m1196 12 c77 -30 175 -96 197 -132 9 -16 21 -30 26 -30 5 0 2 -11 -7 -25 -9
-14 -13 -25 -8 -25 4 0 7 -12 6 -27 -1 -16 -7 -27 -13 -25 -7 1 -10 -2 -6 -8
3 -6 11 -8 16 -5 5 4 6 -2 2 -11 -5 -14 -3 -16 12 -11 15 6 16 5 6 -7 -7 -8
-10 -20 -7 -25 4 -5 1 -13 -5 -17 -8 -4 -9 -3 -5 4 4 7 -9 19 -31 31 -21 10
-63 35 -93 55 -153 101 -394 149 -555 112 l-60 -14 45 39 c69 61 129 101 190
126 47 20 68 23 145 20 60 -3 108 -11 145 -25z m-1285 8 c3 -5 1 -10 -4 -10
-6 0 -11 5 -11 10 0 6 2 10 4 10 3 0 8 -4 11 -10z m2059 -6 c3 -8 2 -12 -4 -9
-6 3 -10 10 -10 16 0 14 7 11 14 -7z m-3220 -9 c-4 -8 -8 -15 -10 -15 -2 0 -4
7 -4 15 0 8 4 15 10 15 5 0 7 -7 4 -15z m79 0 c-3 -9 -8 -14 -10 -11 -3 3 -2
9 2 15 9 16 15 13 8 -4z m32 -5 c3 -5 1 -10 -4 -10 -6 0 -11 5 -11 10 0 6 2
10 4 10 3 0 8 -4 11 -10z m1106 -9 c-6 -10 -7 -21 -4 -25 3 -3 1 -6 -6 -6 -8
0 -11 7 -7 15 3 8 0 15 -7 16 -9 0 14 14 31 18 1 1 -2 -7 -7 -18z m-574 -16
c0 -8 -4 -12 -9 -9 -5 3 -6 10 -3 15 9 13 12 11 12 -6z m-1218 -51 c14 -12
-19 -1 -35 12 -18 14 -18 14 6 3 14 -6 27 -13 29 -15z m918 20 c-3 -3 -12 -4
-19 -1 -8 3 -5 6 6 6 11 1 17 -2 13 -5z m-872 -52 c-3 -3 -11 0 -18 7 -9 10
-8 11 6 5 10 -3 15 -9 12 -12z m-237 -519 c21 -29 15 -81 -14 -110 -20 -20
-31 -24 -57 -19 -104 20 -76 167 28 151 17 -3 36 -13 43 -22z m305 14 c114
-49 166 -170 116 -274 -41 -85 -168 -126 -261 -85 -144 63 -147 281 -6 351 49
24 105 27 151 8z m2690 -17 c18 -12 46 -41 62 -64 26 -36 30 -50 30 -108 0
-59 -3 -70 -31 -105 -43 -52 -84 -74 -152 -80 -51 -4 -62 -1 -111 29 -68 42
-96 90 -96 168 1 75 40 144 98 171 56 26 153 21 200 -11z m-354 -6 c12 -15 21
-37 21 -49 0 -12 -9 -34 -21 -49 -42 -53 -129 -23 -129 46 0 71 87 106 129 52z
m661 -220 c48 -79 69 -149 87 -287 28 -207 -4 -315 -132 -443 -206 -205 -552
-272 -811 -154 -114 52 -225 149 -283 249 -69 117 -109 356 -62 368 12 3 22
19 28 46 9 38 10 33 10 -43 -1 -204 78 -353 244 -460 34 -22 92 -49 127 -60
76 -24 209 -35 272 -23 38 7 28 9 -60 10 -119 1 -216 28 -298 83 -25 16 -48
30 -52 30 -3 0 -13 13 -22 28 -14 23 -15 32 -5 42 10 12 9 12 -5 1 -10 -7 -15
-18 -11 -25 4 -6 0 -5 -9 2 -9 7 -15 23 -13 34 6 27 15 36 15 14 0 -9 5 -14
10 -11 6 4 7 11 4 17 -4 7 -2 8 4 4 7 -4 28 -3 47 3 24 6 35 6 35 -1 0 -6 6
-8 14 -5 8 3 17 -1 20 -9 3 -9 10 -12 16 -9 5 3 10 2 10 -3 0 -6 8 -8 18 -5
10 2 42 -5 71 -17 153 -60 341 -23 445 87 19 20 43 37 55 38 11 1 18 -2 15 -7
-4 -5 0 -9 7 -7 36 4 59 -2 59 -17 0 -14 2 -14 16 1 11 11 20 13 27 6 6 -6 -2
-26 -26 -58 -61 -83 -139 -143 -237 -182 -30 -12 -41 -19 -25 -16 17 3 64 22
105 42 282 137 382 494 222 798 -15 27 -28 55 -30 60 -8 23 66 -69 98 -121z
m-3766 20 c-142 -306 -43 -618 239 -759 49 -25 99 -45 111 -45 13 1 5 7 -24
19 -80 31 -164 91 -201 143 -18 24 -18 26 -2 23 10 -1 26 7 36 19 15 19 16 19
10 2 -5 -16 -3 -18 13 -11 37 15 67 19 60 7 -4 -7 -2 -10 7 -7 7 3 39 -6 71
-20 117 -52 281 -56 383 -9 40 18 119 77 140 104 11 15 28 8 28 -12 0 -6 6
-13 14 -16 9 -3 11 0 5 9 -6 11 -5 12 8 2 8 -7 18 -10 21 -6 4 3 7 4 7 0 0 -3
-8 -13 -17 -23 -17 -17 -17 -17 4 -12 13 4 27 0 34 -8 16 -19 -8 -53 -74 -105
-88 -70 -170 -101 -317 -119 l-75 -9 101 4 c246 10 428 150 498 385 17 58 23
200 10 267 -6 32 -5 36 7 23 19 -20 39 -66 39 -91 0 -11 7 -31 16 -45 37 -55
-7 -272 -79 -393 -77 -128 -244 -237 -409 -268 -164 -29 -358 -1 -500 74 -100
52 -246 197 -288 286 -30 65 -50 164 -29 152 5 -4 9 35 9 97 0 57 6 126 14
153 18 70 64 156 86 162 9 3 24 17 31 31 18 35 40 72 44 72 2 0 -12 -34 -31
-76z m480 51 c9 -25 -4 -45 -30 -45 -16 0 -24 6 -24 18 0 35 42 57 54 27z
m2644 -19 c-4 -25 -36 -34 -44 -12 -8 21 13 46 32 39 8 -3 14 -15 12 -27z
m-2918 -121 c26 -8 26 -25 -1 -25 -13 0 -23 -10 -30 -30 -13 -36 -25 -38 -33
-7 -3 13 -18 29 -33 36 l-28 13 27 14 c15 8 33 24 39 36 l12 22 13 -27 c8 -14
23 -28 34 -32z m2659 14 c35 -34 37 -39 17 -39 -8 0 -23 -12 -34 -27 l-19 -27
-8 23 c-4 12 -18 27 -33 32 l-26 10 32 19 c18 11 32 24 32 30 0 16 6 12 39
-21z m1641 -64 c0 -7 145 -201 173 -230 27 -29 40 -55 27 -55 -5 0 -10 -7 -10
-15 0 -8 -4 -15 -10 -15 -5 0 -10 5 -10 10 0 6 -4 10 -10 10 -34 0 -109 115
-159 243 -35 89 -37 94 -16 73 8 -8 15 -17 15 -21z m-5349 -73 c-35 -84 -88
-169 -127 -206 -29 -26 -51 -35 -38 -15 4 8 -1 9 -17 4 -22 -7 -23 -7 -9 11 8
10 21 23 28 27 6 4 12 13 12 19 0 9 46 73 75 104 5 6 30 38 55 72 24 34 46 60
48 58 2 -2 -10 -36 -27 -74z m1789 -37 c0 -9 13 -24 30 -33 35 -20 37 -28 10
-37 -11 -3 -25 -15 -31 -26 -8 -15 -14 -18 -23 -10 -7 6 -17 7 -21 3 -5 -4 -5
-2 -1 5 8 14 -7 24 -48 33 l-31 7 37 16 c20 8 43 25 50 36 15 25 28 27 28 6z
m2659 -9 c12 -13 37 -27 54 -31 l32 -7 -42 -20 c-23 -12 -47 -32 -54 -46 l-14
-24 -5 23 c-3 15 -20 31 -44 43 l-39 19 37 19 c20 10 36 25 36 33 0 22 13 18
39 -9z m-3553 -71 c58 -31 131 -33 193 -5 24 11 45 20 47 20 2 0 -12 -21 -31
-46 -42 -55 -49 -102 -23 -167 15 -38 7 -42 -38 -18 -47 25 -81 27 -105 5 -33
-29 -46 -12 -39 47 8 64 -1 103 -35 149 -37 50 -35 50 31 15z m2692 0 c44 -30
129 -34 177 -9 17 9 43 20 58 24 l28 9 -29 -37 c-58 -73 -63 -98 -36 -169 9
-24 14 -46 11 -49 -3 -3 -22 3 -44 14 -28 14 -46 17 -67 11 -16 -4 -33 -6 -37
-4 -3 3 -12 -2 -19 -10 -7 -8 -19 -15 -28 -15 -12 0 -13 7 -7 38 13 60 7 124
-13 152 -25 34 -44 70 -37 70 3 0 23 -11 43 -25z m-2908 -333 c78 -115 154
-186 256 -239 135 -70 348 -123 496 -123 131 0 319 80 438 187 51 45 53 46 27
11 -55 -71 -188 -156 -297 -187 -25 -8 -63 -20 -85 -27 l-40 -14 37 5 c62 9
51 -12 -13 -24 -113 -23 -299 -6 -299 26 0 7 -8 13 -17 13 -35 1 -195 59 -261
96 -96 53 -242 200 -282 285 -16 35 -30 70 -30 78 0 18 -3 22 70 -87z m4074
10 c-71 -140 -222 -269 -399 -338 -38 -15 -72 -31 -75 -34 -9 -12 -102 -40
-131 -40 -15 0 -31 -4 -34 -10 -3 -5 1 -10 10 -10 9 0 13 -5 10 -11 -5 -7 -31
-8 -74 -4 -76 7 -251 44 -266 57 -10 9 44 1 89 -13 30 -9 68 3 48 15 -6 4 -48
13 -92 21 -127 22 -265 100 -329 185 -23 30 -18 28 44 -22 105 -83 225 -138
345 -157 29 -5 107 -5 175 0 299 21 543 163 675 393 47 83 50 59 4 -32z
m-2934 63 c0 -8 -4 -15 -9 -15 -13 0 -22 16 -14 24 11 11 23 6 23 -9z m1860
11 c0 -3 -4 -8 -10 -11 -5 -3 -10 -1 -10 4 0 6 5 11 10 11 6 0 10 -2 10 -4z"/>
<path d="M1200 8840 c0 -5 5 -10 11 -10 5 0 7 5 4 10 -3 6 -8 10 -11 10 -2 0
-4 -4 -4 -10z"/>
<path d="M1180 8601 c0 -5 7 -11 14 -14 10 -4 13 -1 9 9 -6 15 -23 19 -23 5z"/>
<path d="M1196 8557 c3 -10 9 -15 12 -12 3 3 0 11 -7 18 -10 9 -11 8 -5 -6z"/>
<path d="M1326 8257 c3 -10 9 -15 12 -12 3 3 0 11 -7 18 -10 9 -11 8 -5 -6z"/>
<path d="M9120 8881 c0 -12 5 -21 11 -21 6 0 9 -7 6 -14 -4 -10 -1 -13 9 -9
16 6 19 23 4 23 -5 0 -10 6 -10 14 0 8 -4 18 -10 21 -5 3 -10 -3 -10 -14z"/>
<path d="M1746 8237 c3 -10 9 -15 12 -12 3 3 0 11 -7 18 -10 9 -11 8 -5 -6z"/>
<path d="M1950 7546 c0 -2 8 -10 18 -17 15 -13 16 -12 3 4 -13 16 -21 21 -21
13z"/>
<path d="M2070 7509 c0 -5 5 -7 10 -4 6 3 10 8 10 11 0 2 -4 4 -10 4 -5 0 -10
-5 -10 -11z"/>
<path d="M8293 7583 c9 -2 17 -8 17 -11 0 -4 12 -8 27 -9 l28 -1 -25 14 c-14
7 -34 13 -45 12 -17 0 -17 -1 -2 -5z"/>
<path d="M8375 7550 c-3 -5 -1 -10 4 -10 6 0 11 5 11 10 0 6 -2 10 -4 10 -3 0
-8 -4 -11 -10z"/>
<path d="M3725 4830 c19 -8 73 -14 64 -6 -2 2 -22 6 -44 9 -28 5 -34 4 -20 -3z"/>
<path d="M3708 4593 c7 -3 16 -2 19 1 4 3 -2 6 -13 5 -11 0 -14 -3 -6 -6z"/>
<path d="M1326 9715 c-11 -8 -18 -17 -15 -19 2 -3 15 4 29 14 14 11 21 20 15
19 -5 0 -19 -6 -29 -14z"/>
<path d="M7805 9356 c-59 -32 -134 -79 -160 -101 -53 -44 -12 -26 80 35 49 33
94 61 100 63 5 3 8 6 5 9 -3 3 -14 0 -25 -6z"/>
<path d="M7509 9123 c-13 -16 -12 -17 4 -4 9 7 17 15 17 17 0 8 -8 3 -21 -13z"/>
<path d="M2531 9080 c17 -26 79 -78 165 -136 76 -51 78 -41 4 13 -36 25 -92
69 -125 97 -39 33 -54 42 -44 26z"/>
<path d="M7746 9048 c-20 -23 -34 -44 -31 -46 5 -5 14 4 56 61 31 41 15 32
-25 -15z"/>
<path d="M5600 8976 c0 -10 28 -13 41 -5 10 6 7 9 -13 9 -16 0 -28 -2 -28 -4z"/>
<path d="M5660 8968 c0 -4 4 -8 9 -8 6 0 12 4 15 8 3 5 -1 9 -9 9 -8 0 -15 -4
-15 -9z"/>
<path d="M5706 8955 c4 -8 14 -15 24 -15 11 0 22 -4 25 -10 4 -6 -7 -10 -24
-10 -17 0 -31 -5 -31 -11 0 -6 9 -8 23 -3 57 17 2 -8 -78 -37 -174 -61 -270
-123 -368 -237 -143 -167 -200 -395 -157 -631 13 -72 28 -77 29 -10 2 51 81
290 127 381 44 87 132 217 187 275 72 76 206 164 297 193 63 21 94 25 187 24
62 0 112 1 110 3 -13 12 -167 68 -232 84 -99 23 -126 24 -119 4z"/>
<path d="M5597 8914 c-13 -13 5 -24 22 -14 10 5 21 6 25 3 3 -3 6 -1 6 5 0 13
-42 17 -53 6z"/>
<path d="M5660 8910 c0 -5 7 -7 15 -4 8 4 15 8 15 10 0 2 -7 4 -15 4 -8 0 -15
-4 -15 -10z"/>
<path d="M2780 8886 c0 -2 7 -7 16 -10 8 -3 12 -2 9 4 -6 10 -25 14 -25 6z"/>
<path d="M2830 8856 c0 -3 9 -10 20 -16 11 -6 20 -8 20 -6 0 3 -9 10 -20 16
-11 6 -20 8 -20 6z"/>
<path d="M2880 8826 c0 -6 106 -66 116 -66 5 0 -17 16 -49 35 -57 35 -67 39
-67 31z"/>
<path d="M4774 8788 c-27 -18 -57 -37 -68 -43 -44 -24 -102 -156 -131 -303 -5
-26 -11 -33 -27 -30 -26 4 -34 41 -13 58 17 14 20 46 5 55 -6 3 -10 -4 -10
-17 0 -17 -3 -19 -9 -9 -5 7 -14 10 -20 7 -6 -4 -11 -2 -11 3 0 6 4 11 9 11 5
0 11 9 14 20 3 11 12 20 21 20 9 0 16 4 16 9 0 5 3 18 6 28 9 28 -64 -57 -87
-102 -15 -27 -23 -66 -26 -121 -6 -92 10 -143 66 -206 17 -20 31 -38 31 -42 0
-3 -15 -6 -32 -7 l-33 -1 25 -11 c28 -14 40 -40 13 -30 -11 5 -14 3 -8 -6 4
-7 18 -11 31 -8 13 2 25 0 26 -5 2 -6 17 -11 33 -13 86 -8 258 -102 364 -199
l44 -41 -37 71 c-40 79 -109 266 -120 329 -4 22 -14 50 -22 62 -22 35 -23 219
-1 260 23 44 21 63 -4 33 -11 -14 -18 -19 -14 -12 3 7 0 12 -7 12 -16 0 -71
-92 -94 -158 -9 -26 -20 -92 -23 -147 l-7 -100 -13 60 c-16 72 -8 248 15 340
20 75 66 163 116 220 22 25 38 45 36 45 -2 0 -26 -14 -54 -32z m-284 -325 c0
-21 -3 -24 -9 -14 -5 8 -7 20 -4 28 8 21 13 15 13 -14z"/>
<path d="M4575 8596 c-9 -14 -15 -33 -13 -43 3 -13 9 -8 22 20 22 44 15 60 -9
23z"/>
<path d="M3195 8480 c3 -5 8 -10 11 -10 2 0 4 5 4 10 0 6 -5 10 -11 10 -5 0
-7 -4 -4 -10z"/>
<path d="M4896 8384 c-10 -26 -7 -179 5 -232 5 -28 16 -58 24 -68 13 -17 13
-15 5 16 -11 43 -20 142 -21 233 -1 70 -3 77 -13 51z"/>
<path d="M7227 8359 c7 -7 15 -10 18 -7 3 3 -2 9 -12 12 -14 6 -15 5 -6 -5z"/>
<path d="M5805 8339 c-27 -3 -66 -12 -85 -19 -42 -15 -66 -35 -32 -27 14 3 22
1 22 -8 0 -7 10 -25 22 -41 13 -15 17 -25 10 -20 -6 4 -12 4 -12 -1 0 -4 -26
-21 -57 -38 -97 -50 -239 -200 -297 -313 -16 -31 -12 -29 61 29 42 34 95 69
118 79 57 25 158 56 170 51 6 -2 15 -4 22 -5 7 -1 15 -5 19 -8 8 -8 35 2 30
11 -3 4 4 7 15 7 23 0 25 -12 3 -20 -9 -4 -15 -9 -12 -12 12 -12 58 17 64 41
3 14 10 25 15 25 19 0 8 16 -22 34 -22 13 -50 18 -98 18 l-66 -1 34 15 c115
51 295 62 409 26 34 -11 62 -17 62 -13 0 3 -22 34 -50 68 -35 44 -65 69 -103
87 -61 29 -167 44 -242 35z"/>
<path d="M5879 8043 c-13 -21 -30 -43 -39 -50 -13 -10 -11 -11 8 -6 12 3 22
12 22 19 0 8 8 14 18 14 12 0 14 -2 4 -8 -8 -5 5 -9 33 -8 47 0 53 4 33 24 -9
9 -8 12 6 12 16 0 15 3 -7 20 -36 29 -52 25 -78 -17z m68 11 c-3 -3 -12 -4
-19 -1 -8 3 -5 6 6 6 11 1 17 -2 13 -5z"/>
<path d="M5990 8050 c0 -5 5 -10 11 -10 5 0 7 5 4 10 -3 6 -8 10 -11 10 -2 0
-4 -4 -4 -10z"/>
<path d="M4395 8037 c-8 -4 -20 -5 -27 -1 -7 4 -8 3 -4 -5 9 -13 37 -11 48 4
5 6 8 5 8 -3 0 -7 5 -10 10 -7 6 3 10 1 10 -6 0 -7 3 -9 6 -6 4 3 14 2 23 -3
13 -6 17 -4 18 11 1 10 -4 20 -10 21 -37 4 -69 3 -82 -5z m79 -6 c4 -5 -3 -7
-14 -4 -23 6 -26 13 -6 13 8 0 17 -4 20 -9z"/>
<path d="M4500 8015 c0 -8 4 -15 10 -15 5 0 7 7 4 15 -4 8 -8 15 -10 15 -2 0
-4 -7 -4 -15z"/>
<path d="M5985 8021 c-3 -5 -1 -12 4 -15 5 -3 11 1 15 9 6 16 -9 21 -19 6z"/>
<path d="M5720 8015 c0 -7 30 -13 34 -7 3 4 -4 9 -15 9 -10 1 -19 0 -19 -2z"/>
<path d="M4461 7883 c-2 -20 16 -24 30 -5 13 15 12 16 -3 4 -13 -10 -17 -10
-21 0 -4 9 -6 9 -6 1z"/>
<path d="M5843 7740 c-18 -11 -33 -22 -33 -25 0 -4 4 -4 9 0 5 3 12 -3 14 -12
4 -14 5 -13 6 4 0 12 10 24 21 28 11 3 20 11 20 16 0 12 0 12 -37 -11z"/>
<path d="M5855 7710 c3 -5 17 -9 30 -8 31 3 21 18 -11 18 -14 0 -22 -4 -19
-10z"/>
<path d="M6420 7532 c0 -5 7 -9 15 -9 8 0 15 4 15 9 0 4 -7 8 -15 8 -8 0 -15
-4 -15 -8z"/>
<path d="M3950 7515 c7 -9 15 -13 17 -11 7 7 -7 26 -19 26 -6 0 -6 -6 2 -15z"/>
<path d="M3930 7500 c0 -5 5 -10 11 -10 5 0 7 5 4 10 -3 6 -8 10 -11 10 -2 0
-4 -4 -4 -10z"/>
<path d="M3855 7470 c-3 -5 -1 -10 4 -10 6 0 11 5 11 10 0 6 -2 10 -4 10 -3 0
-8 -4 -11 -10z"/>
<path d="M3615 7269 c-4 -6 -5 -12 -2 -15 2 -3 7 2 10 11 7 17 1 20 -8 4z"/>
<path d="M4720 7132 c0 -5 12 -19 27 -33 l26 -24 -23 33 c-25 33 -30 38 -30
24z"/>
<path d="M6295 7114 c-38 -13 -73 -28 -79 -34 -5 -5 22 2 60 15 38 14 77 25
86 25 9 0 20 5 23 10 9 15 -13 11 -90 -16z"/>
<path d="M3500 7110 c0 -5 5 -10 11 -10 5 0 7 5 4 10 -3 6 -8 10 -11 10 -2 0
-4 -4 -4 -10z"/>
<path d="M6916 7086 c10 -8 21 -12 24 -10 5 6 -21 24 -34 24 -6 0 -1 -6 10
-14z"/>
<path d="M6174 7064 c-18 -14 -18 -15 4 -4 12 6 22 13 22 15 0 8 -5 6 -26 -11z"/>
<path d="M6885 7020 c3 -5 8 -10 11 -10 2 0 4 5 4 10 0 6 -5 10 -11 10 -5 0
-7 -4 -4 -10z"/>
<path d="M3425 6760 c3 -5 8 -10 11 -10 2 0 4 5 4 10 0 6 -5 10 -11 10 -5 0
-7 -4 -4 -10z"/>
<path d="M1390 6550 c8 -5 20 -10 25 -10 6 0 3 5 -5 10 -8 5 -19 10 -25 10 -5
0 -3 -5 5 -10z"/>
<path d="M4923 6513 c4 -3 -1 -12 -11 -20 -16 -13 -16 -14 3 -11 21 3 34 38
14 38 -7 0 -9 -3 -6 -7z"/>
<path d="M4985 6510 c-3 -5 -1 -10 4 -10 6 0 11 5 11 10 0 6 -2 10 -4 10 -3 0
-8 -4 -11 -10z"/>
<path d="M4802 6494 c-7 -8 -8 -14 -3 -14 10 0 25 19 20 25 -2 1 -10 -3 -17
-11z"/>
<path d="M4840 6480 c-13 -8 -13 -10 2 -10 9 0 20 5 23 10 8 13 -5 13 -25 0z"/>
<path d="M4880 6471 c0 -5 7 -11 15 -15 8 -3 15 -1 15 3 0 5 -7 11 -15 15 -8
3 -15 1 -15 -3z"/>
<path d="M5003 5084 c-191 -41 -304 -170 -291 -329 6 -75 48 -151 124 -229 74
-76 171 -130 253 -141 44 -6 48 -8 43 -31 -2 -13 -9 -24 -14 -24 -5 0 -6 -4
-3 -10 3 -5 -3 -10 -14 -10 -13 0 -21 -7 -21 -17 0 -9 -3 -13 -7 -10 -3 4 -11
3 -17 -2 -18 -15 -83 -19 -97 -7 -9 8 -10 8 -4 -3 6 -10 2 -11 -15 -6 -13 4
-20 3 -17 -2 3 -5 -3 -9 -14 -9 -10 0 -19 4 -19 9 0 5 -7 4 -15 -3 -14 -12
-19 -7 -16 13 1 5 -3 5 -9 2 -6 -4 -9 -13 -6 -20 5 -14 -18 -14 -31 0 -4 4 -1
5 7 0 12 -6 13 -5 3 5 -10 11 -15 10 -30 -6 -10 -11 -14 -14 -9 -7 6 10 5 12
-7 8 -8 -4 -18 -2 -22 4 -8 14 -25 14 -25 0 0 -5 5 -7 12 -3 7 5 8 3 3 -6 -6
-10 -12 -8 -27 9 -10 13 -18 18 -18 12 0 -7 -8 -8 -26 -1 -23 9 -25 8 -19 -12
7 -23 7 -23 -11 1 -17 23 -18 23 -32 5 -11 -14 -13 -15 -9 -3 4 11 -3 20 -20
28 -25 11 -25 11 -12 -5 12 -15 10 -15 -13 1 -15 11 -28 24 -28 28 0 5 -5 5
-10 2 -6 -4 -10 -3 -9 2 3 19 -2 34 -10 28 -5 -3 -18 6 -29 20 -11 13 -22 21
-26 17 -4 -3 -4 1 0 11 4 11 0 19 -10 23 -11 4 -14 13 -11 25 5 14 0 20 -19
25 -35 8 -87 -23 -109 -66 -17 -34 -17 -35 3 -38 11 -2 47 -36 79 -76 79 -97
112 -124 202 -168 176 -88 389 -70 547 46 l58 43 43 -33 c103 -80 231 -115
371 -103 96 8 155 29 240 85 59 39 140 125 169 182 9 17 20 22 51 22 22 0 40
3 40 8 0 13 -41 77 -58 90 -21 16 -77 15 -91 -2 -7 -8 -14 -23 -16 -34 -6 -32
-20 -55 -52 -83 -31 -27 -87 -51 -97 -42 -3 4 -6 1 -6 -6 0 -7 -5 -9 -12 -5
-6 4 -8 3 -5 -4 4 -5 17 -8 30 -5 12 3 19 3 15 -2 -4 -4 -23 -8 -43 -9 -20 -2
-41 -9 -47 -17 -8 -11 -9 -11 -5 2 3 9 0 16 -7 16 -15 0 -17 -29 -4 -38 21
-14 -20 -16 -43 -2 -22 13 -22 14 -2 10 16 -4 21 0 20 13 -1 16 -3 16 -24 3
-21 -14 -28 -11 -24 10 1 5 -3 6 -9 2 -8 -5 -7 -11 1 -21 7 -8 7 -14 1 -14 -5
0 -15 7 -22 15 -7 9 -15 13 -18 10 -3 -3 5 -14 18 -25 13 -11 19 -20 15 -20
-5 0 -19 10 -32 22 -13 12 -23 16 -23 9 0 -9 -5 -9 -21 0 -15 7 -19 8 -15 0 5
-7 1 -9 -8 -5 -9 3 -13 11 -9 17 4 6 1 7 -8 1 -18 -12 -99 -12 -91 0 3 5 -3 6
-13 3 -9 -4 -24 -2 -31 4 -8 6 -14 8 -14 3 0 -5 -4 -3 -9 5 -5 8 -23 14 -40
15 -22 1 -30 5 -26 14 3 8 -7 28 -21 45 l-26 31 48 12 c162 39 276 122 348
253 20 38 29 71 33 126 5 67 3 79 -22 131 -52 105 -123 156 -262 188 -88 20
-281 20 -370 0z m332 -73 c17 -11 45 -33 64 -49 l34 -29 -44 -17 c-97 -39
-234 -50 -340 -27 -68 14 -99 42 -78 68 12 15 12 16 -1 9 -8 -5 -1 3 15 17 40
34 88 45 215 46 88 1 110 -2 135 -18z m255 -207 c-17 -52 -22 -35 -8 27 8 36
13 47 16 31 2 -12 -2 -38 -8 -58z m-798 26 c2 -22 0 -40 -4 -40 -5 0 -8 18 -8
40 0 22 2 40 4 40 2 0 6 -18 8 -40z m855 -22 c-3 -8 -6 -5 -6 6 -1 11 2 17 5
13 3 -3 4 -12 1 -19z m-489 -510 c-8 -12 -25 -29 -39 -37 -17 -11 -14 -6 11
21 40 43 49 48 28 16z m83 -25 c13 -16 12 -17 -3 -4 -10 7 -18 15 -18 17 0 8
8 3 21 -13z m-151 -33 c0 -5 -5 -10 -11 -10 -5 0 -7 5 -4 10 3 6 8 10 11 10 2
0 4 -4 4 -10z m-36 -19 c6 -9 -24 -25 -103 -52 -56 -20 -205 -27 -215 -11 -3
5 24 7 60 6 46 -1 69 2 79 13 12 11 15 12 15 1 0 -10 2 -10 9 1 6 9 11 10 15
2 4 -6 12 -9 17 -5 5 3 6 10 3 16 -4 6 1 6 14 -1 12 -7 23 -7 27 -2 3 5 19 12
35 16 17 4 28 11 24 16 -3 5 -1 9 5 9 5 0 12 -4 15 -9z m754 4 c-2 -1 -12 -7
-24 -13 -15 -8 -21 -8 -21 1 0 7 11 13 24 13 14 1 23 1 21 -1z m-64 -35 c-5
-5 -25 -12 -44 -15 -35 -5 -35 -5 5 9 50 18 51 18 39 6z m-1079 -18 c-3 -3
-11 0 -18 7 -9 10 -8 11 6 5 10 -3 15 -9 12 -12z m983 -9 c-10 -2 -26 -2 -35
0 -10 3 -2 5 17 5 19 0 27 -2 18 -5z"/>
<path d="M7511 4924 c0 -11 3 -14 6 -6 3 7 2 16 -1 19 -3 4 -6 -2 -5 -13z"/>
<path d="M7655 4780 c19 -8 18 -9 -5 -11 -14 -1 2 -5 35 -8 33 -3 63 -2 66 3
4 4 10 3 13 -3 4 -6 12 -11 18 -11 7 0 6 5 -1 14 -8 9 -27 13 -56 11 -25 -2
-45 1 -45 6 0 5 -10 9 -22 8 -22 0 -22 -1 -3 -9z"/>
<path d="M2725 4760 c-3 -5 -1 -10 4 -10 6 0 11 5 11 10 0 6 -2 10 -4 10 -3 0
-8 -4 -11 -10z"/>
<path d="M2780 4760 c-12 -8 -10 -10 8 -10 13 0 20 4 17 10 -7 12 -6 12 -25 0z"/>
<path d="M2825 4759 c-5 -7 84 -24 90 -17 2 2 -16 8 -41 14 -25 6 -47 7 -49 3z"/>
<path d="M2354 4569 c-3 -6 -3 -14 2 -18 13 -9 14 -43 0 -38 -6 2 -10 11 -8
21 4 23 -29 20 -35 -4 -3 -11 -9 -17 -14 -14 -5 3 -9 1 -9 -4 0 -5 -11 -22
-25 -38 -24 -27 -68 -112 -94 -179 -6 -16 -15 -73 -20 -125 -15 -157 11 -256
90 -342 l38 -43 -20 40 c-16 32 -20 53 -16 105 5 84 38 149 118 235 56 60 226
185 251 185 5 0 -13 -28 -40 -62 -52 -67 -77 -107 -69 -114 2 -3 14 12 26 32
29 49 39 36 14 -18 -64 -138 -66 -321 -5 -452 29 -63 52 -85 52 -51 0 52 89
148 174 190 54 26 214 70 223 62 3 -3 -13 -15 -34 -25 -86 -45 -164 -160 -180
-270 -6 -34 -9 -62 -7 -62 1 0 25 16 54 35 28 19 75 42 103 50 76 24 427 62
427 47 0 -4 -13 -15 -29 -25 -86 -51 -197 -166 -260 -270 -23 -38 -71 -194
-71 -232 0 -13 14 1 40 41 43 66 113 126 195 167 53 26 206 79 212 73 2 -2
-13 -16 -32 -31 -179 -136 -285 -336 -285 -535 0 -90 11 -116 30 -70 22 54
102 115 193 148 136 49 135 49 57 -24 -87 -82 -140 -154 -114 -154 10 0 42 14
73 31 l55 31 -58 -63 c-98 -109 -224 -304 -270 -419 l-26 -65 53 56 c78 83
108 103 58 39 -56 -72 -106 -171 -133 -267 -17 -63 -22 -106 -22 -221 -1 -130
-2 -140 -15 -110 -7 18 -20 71 -29 118 -13 71 -14 103 -4 195 15 143 53 297
98 393 46 100 43 137 -23 264 l-48 93 -6 -85 c-7 -82 -30 -167 -63 -226 -15
-28 -16 -26 -8 51 18 194 -1 351 -58 485 -28 67 -92 174 -110 185 -21 13 -60
-4 -60 -26 0 -16 -2 -18 -14 -7 -8 7 -13 15 -13 18 3 8 -56 70 -66 70 -5 0 1
-17 13 -37 13 -21 26 -49 30 -63 5 -14 16 -43 25 -65 l17 -40 -23 20 c-12 11
-19 14 -15 8 4 -7 4 -13 -1 -13 -16 1 -43 27 -43 42 0 8 -10 26 -22 40 -13 14
-24 31 -26 39 -2 8 -7 16 -10 19 -4 3 -25 28 -46 57 -22 29 -43 50 -48 47 -5
-3 -7 0 -6 8 2 7 -2 12 -9 11 -7 -2 -10 4 -6 13 4 10 -2 17 -16 21 -11 3 -18
9 -15 14 3 5 -2 9 -11 9 -9 0 -13 5 -10 10 3 6 3 10 -2 11 -4 0 -17 2 -29 4
-13 3 -33 -7 -54 -25 -26 -23 -37 -27 -52 -19 -10 5 -17 15 -16 22 2 7 0 12
-4 12 -4 0 -14 9 -23 20 -24 29 -6 -4 21 -42 13 -17 24 -35 24 -38 0 -4 9 -19
19 -34 11 -15 23 -40 27 -57 3 -16 37 -74 74 -129 68 -100 132 -218 145 -265
3 -14 -15 15 -42 63 -46 84 -154 240 -161 232 -9 -8 40 -85 51 -80 7 4 3 -1
-8 -10 -20 -17 -20 -17 5 -11 21 6 23 5 10 -6 -22 -20 -47 -53 -33 -44 10 5
12 -2 10 -26 -3 -22 -11 -36 -25 -43 -12 -5 -22 -12 -22 -16 0 -9 33 -7 45 2
6 4 17 4 25 -1 12 -8 12 -10 -4 -10 -11 0 -16 -5 -13 -14 4 -10 0 -12 -14 -9
-13 4 -19 1 -17 -8 2 -8 -4 -14 -13 -14 -22 0 -50 -25 -42 -37 3 -6 11 -2 17
10 8 16 15 19 26 12 13 -8 12 -10 -2 -10 -10 0 -18 -7 -18 -15 0 -8 5 -15 12
-15 6 0 4 -6 -6 -13 -9 -7 -16 -19 -14 -27 2 -8 -3 -14 -11 -15 -16 0 -25 -35
-8 -35 6 0 2 -7 -9 -16 -10 -8 -14 -13 -7 -10 6 4 15 1 19 -6 4 -7 4 -10 -1
-6 -4 4 -14 3 -22 -3 -13 -11 -18 -1 -14 24 1 5 -3 6 -8 2 -6 -3 -7 -13 -4
-23 6 -15 4 -15 -15 2 -12 11 -22 25 -22 32 0 7 -3 14 -8 16 -4 2 -28 32 -54
68 -56 80 -195 249 -174 213 4 -8 -3 -7 -22 3 -33 16 -432 417 -432 434 0 6 6
8 13 4 6 -4 4 2 -7 14 -10 12 -22 19 -26 17 -10 -6 -33 22 -27 32 3 5 -1 17
-9 28 -8 10 -14 14 -14 9 0 -6 3 -14 8 -20 4 -5 -1 -1 -10 9 -10 11 -16 23
-13 27 3 5 -4 15 -15 23 -11 7 -17 17 -12 22 4 5 1 5 -6 1 -11 -7 -38 37 -34
56 1 5 -2 7 -7 5 -5 -1 -17 7 -26 18 -35 44 76 -164 120 -225 26 -36 161 -177
299 -315 178 -176 269 -274 309 -333 31 -46 57 -85 57 -88 0 -2 -7 -4 -15 -4
-7 0 -18 -6 -22 -12 -22 -35 -39 -39 -69 -16 -25 20 -27 20 -14 3 8 -11 20
-23 25 -27 6 -5 3 -8 -7 -8 -9 0 -18 -3 -21 -7 -2 -5 -2 -2 0 6 2 9 -2 11 -13
7 -9 -4 -23 -1 -30 5 -8 6 -14 8 -14 4 0 -3 -12 3 -26 14 -15 12 -32 21 -38
21 -6 0 0 -9 14 -20 l25 -20 -25 0 c-17 0 -62 28 -130 81 -121 93 -194 165
-260 259 -14 19 -33 43 -43 53 -10 10 -15 22 -12 27 4 6 2 10 -3 10 -8 0 -19
22 -19 40 0 15 -45 90 -53 90 -6 0 -9 3 -8 8 4 11 -26 72 -35 72 -5 0 -6 4 -3
9 3 5 -6 21 -19 35 -14 15 -23 31 -20 36 3 4 -5 6 -17 4 -13 -2 -17 -1 -10 2
10 5 9 9 -5 20 -17 13 -17 14 2 8 17 -5 18 -4 3 5 -22 15 -45 62 -43 89 1 11
-2 19 -7 16 -16 -10 13 -173 42 -238 10 -23 25 -61 35 -86 28 -75 103 -206
166 -290 81 -108 205 -219 347 -312 64 -42 125 -83 134 -91 9 -9 18 -14 20
-12 2 2 14 -4 27 -14 46 -35 -29 -14 -127 35 -37 19 -68 30 -70 25 -2 -5 -27
5 -58 21 -30 16 -52 34 -49 39 4 5 -1 6 -9 3 -9 -3 -23 6 -37 25 -13 17 -29
31 -36 31 -7 0 -13 7 -13 16 0 10 -6 14 -15 10 -10 -4 -15 1 -15 15 0 13 -6
19 -17 17 -11 -2 -18 3 -18 13 0 9 -15 33 -32 54 -18 21 -33 34 -33 30 0 -5
10 -19 22 -32 12 -13 19 -23 15 -23 -15 0 -65 65 -56 71 14 8 0 37 -32 64 -12
11 -19 14 -14 6 5 -10 4 -12 -3 -7 -7 4 -12 12 -12 17 0 6 -22 57 -50 113 -73
150 -150 385 -150 458 0 29 -9 17 -12 -15 -3 -33 -11 -34 -26 -3 -8 17 -7 27
1 36 9 10 9 11 0 6 -8 -4 -13 -1 -13 8 0 9 -4 16 -8 16 -5 0 -9 -7 -9 -15 0
-8 4 -15 9 -15 5 0 6 -5 3 -10 -4 -6 -11 -7 -17 -4 -20 12 -3 -298 21 -406 22
-94 80 -254 109 -297 8 -13 10 -23 4 -23 -12 0 -73 99 -92 150 -15 39 -30 61
-30 43 0 -22 52 -178 81 -241 15 -34 53 -100 83 -147 31 -47 54 -85 52 -85 -2
0 -27 31 -56 70 -67 91 -120 193 -156 305 -37 113 -42 87 -19 -98 28 -233 91
-432 200 -632 79 -145 207 -289 313 -352 24 -14 41 -27 39 -29 -6 -6 -156 54
-214 86 -151 84 -292 241 -359 398 l-25 57 7 -65 c38 -401 266 -737 609 -901
119 -57 183 -74 331 -90 135 -14 284 -1 398 35 42 13 73 20 70 15 -10 -17
-169 -105 -237 -132 -174 -70 -392 -78 -531 -21 -34 13 -9 -13 62 -67 84 -64
204 -122 306 -148 200 -52 478 -7 646 105 77 52 198 178 243 255 20 35 37 61
37 59 0 -15 -41 -142 -59 -183 -69 -157 -227 -309 -372 -354 -32 -10 -59 -21
-59 -24 0 -3 37 -11 83 -17 273 -39 509 28 720 204 l61 51 76 -57 c41 -31 88
-66 105 -76 l29 -19 -90 -6 c-104 -6 -188 -40 -262 -104 -98 -85 -142 -229
-105 -344 4 -13 3 -14 -5 -2 -12 17 -39 23 -47 11 -2 -4 -18 -6 -35 -4 -16 2
-30 -1 -30 -7 0 -6 -8 -9 -17 -7 -10 1 -24 -1 -30 -5 -8 -5 -13 -4 -13 2 0 6
-7 11 -15 11 -8 0 -15 -6 -15 -12 0 -9 -3 -9 -8 -2 -12 17 -51 12 -44 -6 4
-12 2 -13 -9 -3 -18 17 -78 18 -61 1 19 -19 14 -29 -7 -16 -15 9 -23 9 -35 -1
-14 -12 -16 -10 -16 15 0 22 -3 25 -9 15 -6 -9 -6 -22 -1 -32 12 -22 1 -32
-19 -17 -14 10 -14 10 -3 -2 14 -16 82 -21 82 -7 0 4 5 5 10 2 8 -5 7 -12 -2
-23 -12 -14 -10 -14 10 -3 20 11 26 8 23 -12 -1 -4 11 0 26 10 25 16 27 16 15
1 -13 -16 -8 -17 52 -15 36 2 66 -1 66 -5 0 -4 10 -7 23 -7 12 1 30 -2 40 -6
10 -4 17 -3 17 4 0 7 8 8 23 2 12 -5 33 -8 47 -7 14 1 30 -1 35 -5 23 -15 78
-22 205 -26 215 -7 269 -9 375 -17 55 -4 136 -9 180 -12 93 -5 2565 -5 2610 1
17 2 74 5 127 7 54 2 98 5 98 8 0 3 39 5 88 5 48 0 90 5 95 10 4 7 10 6 15 -1
4 -6 16 -9 27 -7 11 2 52 6 92 7 43 2 79 9 90 17 11 9 14 10 9 1 -4 -6 -2 -12
3 -12 6 0 11 4 11 9 0 4 35 9 77 10 43 1 80 7 84 13 4 7 9 7 13 -1 5 -8 13 -8
29 1 12 7 27 13 32 13 6 1 9 7 7 14 -1 7 2 10 8 6 6 -3 8 -11 5 -16 -4 -5 -1
-9 4 -9 6 0 11 5 11 11 0 5 4 8 9 4 5 -3 13 -1 16 5 5 8 11 7 21 -1 12 -10 13
-9 8 6 -6 15 -3 17 14 13 13 -4 23 0 26 9 9 22 7 25 -6 20 -19 -6 -48 11 -48
30 0 13 -3 13 -15 3 -8 -7 -15 -8 -15 -4 0 5 -16 9 -35 8 -19 -1 -32 2 -29 7
3 5 0 9 -5 9 -6 0 -11 -3 -11 -8 0 -4 -22 -8 -49 -8 l-48 0 9 35 c25 91 -26
238 -110 312 -71 63 -159 101 -253 108 l-79 6 67 50 c88 65 217 188 256 244
88 128 134 285 124 420 -6 85 -36 209 -66 273 l-19 43 -1 -70 c-2 -92 -23
-190 -56 -255 -14 -29 -28 -50 -30 -48 -2 2 2 26 11 53 8 27 17 101 20 165 11
223 -43 439 -163 654 -71 126 -1 49 78 -87 53 -89 93 -185 115 -277 15 -62 28
-87 71 -141 29 -36 68 -99 87 -139 l34 -73 11 52 c37 175 -28 444 -140 577
-67 79 -67 80 -32 56 18 -13 53 -48 80 -80 26 -31 51 -61 56 -67 4 -5 -3 20
-16 57 -31 87 -113 224 -217 363 -98 131 -116 163 -67 116 l36 -34 3 39 c3 36
-2 44 -57 103 l-60 63 40 -6 c70 -12 184 -75 248 -137 l60 -58 -7 77 c-16 191
-84 331 -233 480 -86 86 -90 93 -60 87 57 -12 177 -64 230 -99 61 -41 138
-118 160 -161 l16 -30 1 30 c0 49 -26 135 -62 202 -57 108 -143 192 -312 305
-25 16 10 17 156 3 228 -22 296 -40 392 -108 l29 -20 -7 49 c-16 108 -102 234
-196 285 l-35 19 40 -6 c141 -19 248 -68 319 -144 41 -44 72 -112 60 -132 -3
-4 -1 -8 3 -8 13 0 68 100 89 160 14 41 19 84 19 170 0 115 0 115 -42 201 -33
68 -56 99 -105 144 -53 48 -57 54 -28 40 72 -36 206 -132 260 -185 81 -79 115
-154 115 -250 0 -61 -4 -82 -24 -115 l-24 -40 52 50 c60 57 100 133 132 250
38 141 12 322 -64 448 -20 32 -34 46 -44 43 -8 -3 -17 -6 -19 -6 -2 0 -4 -12
-4 -26 0 -15 4 -23 10 -19 6 4 10 3 9 -2 -2 -11 24 -73 31 -73 3 0 7 -10 8
-22 1 -13 8 -46 15 -75 8 -29 10 -50 6 -48 -4 3 -11 20 -14 38 -14 65 -109
214 -144 225 -8 3 -11 0 -7 -7 4 -6 3 -11 -2 -11 -16 0 -22 13 -11 27 9 10 8
13 -4 13 -8 0 -18 -7 -21 -16 -8 -22 -8 -26 4 -19 5 3 10 -1 10 -10 0 -10 -5
-13 -12 -9 -7 5 -9 2 -6 -8 5 -11 0 -14 -19 -10 -18 3 -30 -1 -40 -13 -7 -11
-13 -14 -13 -8 0 6 -8 14 -17 18 -15 5 -16 4 -5 -6 6 -7 12 -22 12 -33 0 -17
-2 -18 -10 -6 -8 12 -10 12 -16 -4 -5 -14 -9 -15 -15 -4 -7 10 -9 9 -9 -5 0
-12 -4 -16 -12 -10 -7 4 -20 9 -28 11 -23 6 -461 15 -495 10 -26 -3 -23 -5 24
-16 83 -19 181 -61 244 -105 58 -41 69 -51 42 -41 -20 8 -19 -6 2 -21 14 -11
12 -12 -15 -11 -18 0 -32 4 -32 8 0 4 -6 5 -14 2 -8 -3 -17 0 -21 5 -3 6 -10
9 -15 6 -5 -3 -34 2 -66 10 -45 11 -94 14 -218 10 -195 -7 -209 -6 -343 10
-24 2 -43 3 -43 1 0 -3 24 -12 53 -21 28 -9 61 -20 72 -25 11 -5 38 -14 60
-21 l39 -12 -44 -13 c-49 -15 -198 -11 -273 6 -53 12 -66 12 -47 0 9 -6 10
-10 3 -10 -6 0 -15 5 -18 11 -4 6 -14 8 -22 5 -9 -4 -11 -2 -7 6 5 8 2 9 -9 5
-10 -3 -17 -2 -17 4 0 6 -5 7 -11 3 -6 -3 -15 0 -20 7 -8 12 -11 12 -19 -1 -6
-10 -10 -11 -10 -2 0 6 -5 12 -12 12 -6 0 -3 -9 8 -21 20 -23 29 -96 9 -79 -6
5 -21 8 -34 5 -14 -2 -19 0 -15 7 5 7 0 9 -14 6 -15 -4 -19 -2 -15 8 3 8 10
11 16 7 6 -4 7 -1 3 6 -6 9 -12 9 -25 -3 -13 -11 -20 -13 -28 -5 -8 8 -16 3
-28 -17 -15 -26 -14 -17 1 20 3 7 -1 16 -10 19 -9 4 -16 -3 -21 -20 -4 -19
-11 -24 -26 -20 -17 4 -18 3 -8 -9 6 -8 7 -14 2 -14 -5 0 -15 12 -22 27 -10
21 -14 24 -21 13 -6 -9 -5 -17 3 -22 9 -6 9 -8 -1 -8 -8 0 -10 -5 -6 -12 6
-10 4 -10 -7 0 -7 6 -22 12 -33 12 -16 0 -11 -6 19 -27 22 -15 45 -31 50 -35
6 -5 41 -31 80 -58 73 -53 79 -61 25 -34 -18 9 -40 18 -49 19 -9 1 -29 7 -46
15 -16 7 -33 13 -37 12 -5 -1 -7 3 -5 9 2 13 -100 49 -120 42 -7 -3 -13 -12
-13 -20 0 -13 -3 -13 -15 -3 -13 10 -19 9 -37 -6 -12 -11 -18 -13 -14 -6 9 15
-10 16 -20 1 -3 -6 -15 -9 -25 -6 -12 3 -17 1 -12 -6 4 -6 0 -8 -10 -4 -9 3
-17 3 -19 -1 -5 -12 -98 -40 -98 -30 0 5 -7 2 -16 -6 -8 -9 -19 -14 -23 -12
-4 3 -31 -1 -59 -8 -28 -8 -53 -11 -56 -9 -3 3 -12 1 -19 -6 -8 -6 -22 -9 -31
-5 -9 3 -16 1 -16 -6 0 -6 5 -8 12 -4 7 4 8 3 4 -4 -4 -7 -22 -10 -42 -8 -19
3 -32 1 -29 -4 3 -4 -2 -10 -10 -14 -8 -3 -15 -1 -15 5 0 6 -5 7 -10 4 -6 -4
-7 -11 -4 -17 5 -7 -2 -9 -20 -4 -18 4 -34 2 -44 -6 -13 -11 -15 -10 -9 4 5
15 4 16 -13 5 -11 -6 -20 -16 -20 -20 0 -5 -9 -5 -20 -2 -14 4 -20 2 -20 -9 0
-12 -5 -14 -25 -6 -18 7 -28 5 -40 -6 -9 -9 -15 -11 -15 -4 0 6 -5 8 -10 5 -6
-4 -8 -11 -5 -16 3 -5 -1 -6 -9 -3 -9 3 -16 11 -16 18 0 6 -5 4 -10 -5 -6 -11
-19 -15 -37 -12 -22 4 -25 2 -13 -6 11 -8 4 -9 -25 -4 -22 3 -47 11 -55 17
-13 10 -13 9 0 -8 14 -18 13 -19 -2 -13 -10 3 -20 2 -24 -4 -4 -6 -11 -6 -20
2 -11 9 -14 9 -14 -1 0 -9 -4 -9 -17 1 -12 11 -17 11 -20 2 -4 -10 -9 -9 -20
3 -11 11 -26 14 -50 9 -21 -4 -33 -2 -33 5 0 6 -5 8 -10 5 -6 -4 -7 -12 -3
-18 4 -7 0 -7 -10 1 -9 8 -22 10 -29 6 -9 -5 -8 -2 2 12 8 10 10 16 6 12 -5
-4 -16 -2 -24 5 -13 10 -15 9 -10 -10 4 -13 2 -25 -3 -28 -4 -3 -11 5 -14 18
-5 20 -12 23 -44 22 -20 -1 -42 -5 -49 -9 -8 -5 -10 -2 -6 8 5 12 -1 16 -25
16 -17 0 -31 4 -31 9 0 5 -8 7 -19 4 -10 -2 -25 3 -35 12 -9 9 -16 12 -16 6 0
-5 -9 -9 -20 -8 -11 1 -20 5 -20 10 0 4 -4 5 -10 2 -5 -3 -10 -1 -10 5 0 6 -4
9 -9 6 -5 -4 -12 0 -14 6 -4 10 -6 10 -6 0 -1 -10 -5 -9 -17 3 -9 9 -23 14
-30 11 -7 -3 -20 2 -29 10 -8 9 -15 11 -15 4 0 -8 -6 -8 -21 0 -11 7 -23 9
-26 6 -3 -3 -15 0 -26 5 -16 9 -17 13 -6 20 9 5 3 7 -16 5 -17 -2 -40 3 -52
12 -16 10 -23 11 -23 2 0 -7 -6 -6 -16 4 -8 9 -21 13 -27 9 -6 -4 -8 0 -4 10
8 20 -4 22 -22 5 -11 -10 -13 -10 -7 0 6 11 -18 18 -47 13 -4 0 -6 2 -6 6 3
20 -2 23 -15 10 -14 -14 -36 -15 -66 -4 -39 14 -58 15 -53 1 4 -12 0 -12 -21
-4 -17 6 -25 6 -21 0 3 -5 -16 -16 -42 -24 -26 -7 -47 -19 -45 -26 1 -6 -2 -9
-7 -6 -5 4 -28 -1 -51 -10 -22 -9 -43 -14 -45 -12 -3 2 32 30 78 61 45 31 98
70 117 86 33 30 34 30 6 16 -30 -14 -66 -6 -66 16 0 6 6 7 13 2 19 -12 47 -14
47 -4 0 6 -9 8 -20 6 -11 -2 -24 3 -30 13 -5 10 -10 12 -10 5 0 -7 -10 -13
-21 -13 -19 0 -20 2 -8 17 13 15 12 15 -12 0 -14 -10 -29 -14 -33 -10 -4 4 -4
0 -1 -9 5 -12 2 -16 -11 -14 -10 2 -20 8 -22 14 -2 8 -9 6 -20 -6 -10 -10 -12
-11 -7 -3 8 12 6 13 -10 8 -20 -7 -20 -7 0 10 11 10 18 17 16 16 -2 -1 -12 2
-22 7 -20 11 -72 -7 -63 -21 3 -5 -2 -6 -11 -3 -14 6 -10 14 21 45 21 22 33
39 26 39 -7 0 -12 -4 -12 -10 0 -5 -8 -10 -17 -10 -10 0 -52 -12 -93 -26 -41
-14 -106 -28 -145 -31 -38 -3 -76 -10 -84 -17 -12 -9 -13 -8 -6 4 6 12 5 13
-6 3 -15 -15 -33 -18 -25 -5 7 11 -117 11 -124 1 -3 -5 -12 -4 -20 2 -13 8
-13 10 0 19 8 5 40 17 70 26 30 8 82 24 115 35 l60 19 -50 -5 c-27 -3 -54 -6
-60 -6 -5 1 -64 3 -130 5 -254 10 -350 7 -395 -11 -15 -7 -29 -7 -34 -2 -6 5
-15 9 -20 9 -6 0 -4 -4 3 -9 12 -8 9 -11 -12 -16 -19 -5 -33 -2 -46 9 -11 10
-25 14 -37 10 -33 -13 68 66 115 90 25 13 73 31 106 40 108 32 106 35 -30 37
-262 4 -376 0 -434 -17 -21 -6 -23 -4 -19 14 5 16 0 23 -22 30 -27 10 -64 0
-41 -11 7 -3 7 -5 -1 -3 -7 2 -13 9 -13 17 0 7 -8 15 -17 17 -20 4 -25 -14 -5
-21 9 -4 9 -6 0 -6 -21 -2 -25 20 -7 40 9 10 14 22 11 26 -4 3 -7 0 -8 -8 0
-8 -4 -3 -10 9 -5 13 -7 28 -3 33 3 5 1 9 -5 9 -5 0 -13 -5 -17 -11z m229
-304 c-3 -9 -8 -14 -10 -11 -3 3 -2 9 2 15 9 16 15 13 8 -4z m4038 -35 c10 -6
19 -15 19 -19 0 -14 -38 -1 -44 15 -6 17 -1 17 25 4z m41 -49 c-22 -23 -27
-19 -11 7 7 12 16 19 21 16 4 -3 0 -13 -10 -23z m-2692 3 c0 -2 -7 -4 -15 -4
-8 0 -15 4 -15 10 0 5 7 7 15 4 8 -4 15 -8 15 -10z m2504 -10 c3 -8 2 -12 -4
-9 -6 3 -10 10 -10 16 0 14 7 11 14 -7z m-3267 -24 c169 -25 196 -30 202 -36
8 -7 -122 -4 -204 5 -44 5 -100 12 -125 15 -25 3 -56 8 -69 10 -13 3 -51 6
-83 7 -92 3 -46 19 54 19 48 0 149 -9 225 -20z m4238 11 c21 -9 -1 -12 -240
-36 -216 -22 -235 -23 -235 -13 0 4 1 8 3 8 1 0 38 7 82 16 126 26 351 40 390
25z m-485 -45 c0 -2 -7 -7 -16 -10 -8 -3 -12 -2 -9 4 6 10 25 14 25 6z m-725
-26 c-3 -5 -11 -10 -16 -10 -6 0 -7 5 -4 10 3 6 11 10 16 10 6 0 7 -4 4 -10z
m-2385 -90 c0 -5 -5 -10 -11 -10 -5 0 -7 5 -4 10 3 6 8 10 11 10 2 0 4 -4 4
-10z m2685 -20 c3 -5 1 -10 -4 -10 -6 0 -11 5 -11 10 0 6 2 10 4 10 3 0 8 -4
11 -10z m510 -71 c6 -6 -31 -7 -94 -3 -150 9 -177 21 -36 16 66 -2 124 -8 130
-13z m-3528 5 c-3 -3 -12 -4 -19 -1 -8 3 -5 6 6 6 11 1 17 -2 13 -5z m-130
-10 c-3 -3 -12 -4 -19 -1 -8 3 -5 6 6 6 11 1 17 -2 13 -5z m3387 -145 c-5 -8
1 -10 19 -7 14 3 32 1 39 -3 8 -5 -19 -9 -64 -9 -43 0 -78 4 -78 8 0 4 16 6
36 4 26 -3 35 -1 30 7 -4 6 0 11 9 11 10 0 13 -5 9 -11z m-314 -25 c0 -2 -24
-3 -52 -3 -52 2 -53 2 -13 8 37 6 65 4 65 -5z m73 9 c-7 -2 -21 -2 -30 0 -10
3 -4 5 12 5 17 0 24 -2 18 -5z m64 1 c-3 -3 -12 -4 -19 -1 -8 3 -5 6 6 6 11 1
17 -2 13 -5z m76 -1 c-7 -2 -19 -2 -25 0 -7 3 -2 5 12 5 14 0 19 -2 13 -5z
m225 0 c-10 -2 -26 -2 -35 0 -10 3 -2 5 17 5 19 0 27 -2 18 -5z m-573 -13 c-3
-5 -21 -9 -38 -9 l-32 2 35 7 c19 4 36 8 38 9 2 0 0 -3 -3 -9z m-76 -14 c-2
-2 -33 -6 -69 -9 -41 -4 -56 -3 -40 3 25 8 117 14 109 6z m-151 -23 c-10 -2
-26 -2 -35 0 -10 3 -2 5 17 5 19 0 27 -2 18 -5z m-61 -9 c-3 -3 -12 -4 -19 -1
-8 3 -5 6 6 6 11 1 17 -2 13 -5z m-70 -10 c-3 -3 -12 -4 -19 -1 -8 3 -5 6 6 6
11 1 17 -2 13 -5z m-44 -11 c-7 -2 -19 -2 -25 0 -7 3 -2 5 12 5 14 0 19 -2 13
-5z m-1400 -10 c-7 -2 -19 -2 -25 0 -7 3 -2 5 12 5 14 0 19 -2 13 -5z m1350 0
c-7 -2 -19 -2 -25 0 -7 3 -2 5 12 5 14 0 19 -2 13 -5z m-1306 -9 c-3 -3 -12
-4 -19 -1 -8 3 -5 6 6 6 11 1 17 -2 13 -5z m1158 -12 c-12 -11 -113 -28 -250
-43 -151 -17 -469 -14 -605 5 -63 9 -135 19 -159 22 -25 2 -47 7 -50 10 -5 5
182 -4 238 -12 32 -4 462 -3 626 2 99 3 149 9 205 23 2 0 0 -3 -5 -7z m1470
-62 c10 -11 16 -20 13 -20 -3 0 -13 9 -23 20 -10 11 -16 20 -13 20 3 0 13 -9
23 -20z m-4890 -120 c-10 -11 -22 -20 -26 -20 -4 0 2 11 14 24 12 14 24 23 26
20 2 -2 -4 -13 -14 -24z m75 -6 c0 -8 -5 -12 -10 -9 -6 4 -8 11 -5 16 9 14 15
11 15 -7z m-62 -24 c-7 -11 -19 -22 -27 -25 -12 -5 -12 -3 0 12 13 17 31 32
37 33 1 0 -3 -9 -10 -20z m1901 -7 c15 3 18 1 14 -11 -5 -12 -1 -14 15 -10 12
4 25 2 28 -3 3 -5 9 -7 14 -4 4 3 10 -1 13 -9 4 -9 14 -12 26 -9 12 3 18 9 15
14 -6 11 4 11 31 0 11 -5 31 -4 44 1 13 5 49 11 80 13 31 3 49 2 41 -1 -8 -3
-24 -9 -35 -14 -11 -5 -51 -19 -88 -31 -42 -14 -64 -26 -59 -31 6 -6 23 -6 45
0 30 9 40 7 58 -9 12 -10 27 -15 33 -11 19 12 80 8 92 -7 19 -24 75 -23 129 3
93 44 210 77 140 39 -16 -9 -43 -27 -58 -39 -28 -24 -28 -24 -5 -24 17 0 7 -9
-37 -33 -97 -53 -155 -94 -147 -102 4 -5 2 -5 -4 -2 -11 7 -94 -47 -94 -60 0
-4 5 -2 12 5 19 19 33 14 15 -6 -10 -10 -17 -23 -17 -28 0 -6 -9 -20 -20 -32
-12 -12 -17 -22 -13 -22 4 0 4 -4 -2 -8 -20 -14 -84 -119 -134 -217 -28 -55
-64 -125 -81 -155 -16 -30 -30 -61 -30 -67 0 -7 -7 -13 -16 -13 -8 0 -13 -4
-10 -8 6 -10 -29 -65 -38 -60 -7 4 -27 -26 -44 -65 -10 -23 -10 -27 0 -21 8 5
7 0 -2 -10 -8 -11 -15 -33 -16 -50 -3 -79 -4 -82 -14 -66 -5 8 -10 25 -10 37
0 17 -4 21 -17 16 -10 -3 -15 -3 -11 2 4 4 2 15 -5 23 -10 13 -9 14 2 7 10 -5
12 -4 7 3 -4 7 -15 12 -24 12 -15 0 -15 2 -2 10 11 7 11 10 2 10 -7 0 -10 5
-6 12 4 7 3 8 -5 4 -6 -4 -19 -2 -28 6 -14 11 -16 11 -9 -1 6 -9 5 -12 -4 -9
-14 4 -21 24 -25 78 -2 19 -4 38 -4 43 -2 14 -21 7 -21 -8 0 -8 -5 -15 -11
-15 -5 0 -7 -4 -4 -10 3 -5 0 -10 -7 -10 -20 0 -37 47 -31 85 6 34 -4 44 -23
25 -6 -6 -8 14 -7 53 5 111 56 229 153 351 33 42 64 76 68 76 4 0 27 19 52 42
l45 41 -60 -33 c-139 -77 -277 -211 -338 -327 -39 -76 -77 -189 -78 -237 -1
-62 -30 54 -39 159 -12 143 10 302 52 380 l11 20 -23 -20 -23 -20 8 25 7 25
-17 -23 c-9 -12 -18 -35 -19 -50 -2 -16 -10 -28 -20 -30 -9 -2 -13 -8 -10 -14
4 -7 2 -8 -5 -4 -19 12 33 96 109 177 45 48 72 69 80 64 8 -5 11 -4 7 2 -4 6
13 24 36 40 53 38 157 96 157 87 0 -3 15 3 33 14 17 11 41 22 52 24 11 1 23 7
27 13 4 5 10 7 13 3 3 -3 -1 -13 -10 -22 -9 -9 -12 -16 -8 -16 5 0 19 14 32
31 18 24 25 28 37 18 8 -6 23 -9 33 -6z m-1875 -9 c3 -8 2 -12 -4 -9 -6 3 -10
10 -10 16 0 14 7 11 14 -7z m4029 -55 c135 -68 199 -112 274 -190 109 -114
145 -185 149 -298 l3 -76 -14 72 c-7 39 -19 82 -26 95 -7 12 -12 26 -11 31 1
4 -1 7 -6 7 -4 0 -13 13 -20 29 -7 16 -25 37 -40 47 -18 11 -23 13 -16 3 10
-12 30 -82 41 -144 13 -68 12 -183 -1 -280 -22 -148 -23 -156 -35 -185 -8 -20
-10 -12 -11 45 -2 236 -153 459 -405 600 l-50 28 78 -73 c133 -124 199 -232
223 -363 12 -67 12 -90 2 -124 -7 -24 -16 -43 -20 -43 -4 0 -8 -9 -8 -21 0
-11 -4 -17 -10 -14 -5 3 -10 1 -10 -5 0 -7 -6 -10 -14 -7 -9 4 -16 -4 -20 -24
-3 -17 -10 -28 -16 -24 -6 3 -7 0 -4 -9 3 -9 1 -16 -5 -16 -6 0 -11 -9 -11
-19 0 -11 -4 -23 -10 -26 -5 -3 -10 3 -10 14 0 12 -7 21 -15 21 -13 0 -19 -12
-16 -32 0 -4 -7 -4 -16 -1 -13 5 -15 2 -11 -15 5 -19 -11 -46 -23 -39 -2 1 -1
-2 3 -7 8 -10 -15 -36 -31 -36 -6 0 -9 13 -7 30 2 17 -1 30 -5 30 -5 0 -9 10
-9 23 0 22 -27 129 -29 114 -1 -12 -51 49 -51 62 0 6 -3 11 -8 11 -4 0 -13 14
-20 30 -8 17 -18 28 -23 24 -5 -3 -9 2 -9 11 0 23 -130 272 -171 327 -52 71
-55 57 -4 -21 86 -133 147 -310 141 -411 -2 -19 -3 -66 -4 -105 -2 -49 -5 -66
-12 -55 -8 12 -10 9 -10 -11 0 -43 -28 -89 -55 -89 -28 0 -39 -24 -20 -44 19
-19 19 -26 0 -26 -8 0 -16 10 -17 23 -2 32 -1 40 7 62 4 11 -4 3 -19 -17 -16
-22 -24 -44 -20 -55 5 -14 4 -15 -4 -4 -8 11 -12 9 -23 -10 -17 -30 -18 -42
-4 -52 5 -4 -2 -5 -17 -1 -21 4 -28 2 -28 -8 0 -8 -9 -23 -19 -32 -11 -10 -17
-25 -15 -34 5 -15 4 -15 -9 1 -17 20 -31 23 -24 3 4 -10 0 -12 -14 -9 -14 4
-19 0 -19 -17 0 -15 -5 -20 -14 -17 -10 4 -13 1 -9 -9 3 -8 -1 -14 -10 -14 -9
0 -29 -11 -45 -25 -16 -13 -31 -23 -33 -22 -2 1 2 -4 10 -10 11 -9 11 -13 2
-13 -7 0 -10 -4 -7 -8 2 -4 -4 -8 -14 -8 -10 0 -16 4 -14 8 3 4 1 8 -3 8 -5 0
-13 -10 -18 -22 -7 -15 -17 -22 -30 -20 -12 2 -16 0 -9 -5 21 -15 12 -40 -13
-37 -12 1 -23 -3 -23 -9 0 -8 -3 -7 -9 1 -6 11 -10 10 -15 -4 -5 -14 -9 -15
-15 -5 -6 10 -10 9 -14 -4 -5 -10 -3 -14 4 -9 7 4 10 1 7 -6 -2 -7 -12 -14
-22 -16 -20 -3 -47 -35 -40 -46 3 -5 -2 -8 -11 -8 -12 0 -14 -4 -5 -19 11 -21
-2 -24 -29 -7 -9 6 -12 5 -8 -1 8 -12 -17 -25 -35 -18 -19 7 -51 -22 -45 -39
4 -10 1 -13 -8 -10 -10 4 -13 0 -10 -16 3 -17 1 -19 -9 -11 -7 6 -16 8 -20 4
-4 -4 -11 -2 -15 5 -6 10 -11 10 -21 -3 -11 -13 -10 -15 4 -9 20 8 21 -3 2
-22 -11 -11 -16 -11 -19 -1 -4 9 -8 9 -15 -1 -7 -11 -11 -10 -16 4 -4 9 -2 22
4 28 8 8 9 5 4 -9 -5 -16 -4 -17 5 -9 10 9 10 17 1 33 -6 12 -8 25 -6 30 3 5
-1 12 -10 15 -12 5 -15 2 -10 -9 3 -9 2 -13 -4 -10 -6 3 -10 15 -10 25 0 10
-4 21 -9 24 -4 3 -7 -6 -5 -19 1 -14 -2 -27 -7 -31 -5 -3 -10 0 -10 5 -1 6 -2
15 -3 20 0 5 -5 13 -9 18 -5 4 -7 2 -5 -6 1 -8 -5 -17 -16 -19 -11 -2 -16 0
-12 6 3 6 -2 18 -11 28 -10 10 -18 20 -18 24 0 12 -36 43 -42 36 -3 -3 -11 1
-17 10 -6 8 -20 16 -31 18 -10 1 -21 9 -23 17 -3 11 -1 11 7 -1 6 -8 11 -10
11 -5 0 6 -10 21 -21 35 -11 14 -18 20 -15 14 3 -7 -1 -15 -9 -18 -10 -4 -19
2 -25 17 -5 12 -9 16 -9 10 -2 -23 -31 -14 -31 9 0 21 0 21 -16 2 -8 -10 -12
-13 -8 -5 5 11 3 13 -10 8 -14 -5 -16 -3 -11 12 7 23 -16 43 -54 45 -19 0 -27
5 -24 14 3 7 2 12 -3 10 -12 -4 -60 44 -56 56 2 5 -6 6 -17 3 -13 -3 -18 -1
-15 8 3 8 -2 12 -13 12 -11 -1 -17 4 -15 13 5 23 -15 -1 -21 -25 -4 -15 -5
-13 -6 8 0 15 -4 27 -7 27 -15 0 -44 -22 -39 -30 3 -5 1 -11 -4 -15 -6 -3 -9
2 -7 12 2 10 0 27 -5 38 l-8 20 0 -20 c-1 -16 -3 -17 -10 -6 -5 8 -7 20 -4 27
2 6 -1 15 -8 20 -7 4 -10 3 -6 -3 4 -6 1 -13 -6 -16 -10 -4 -13 2 -9 19 2 14
0 24 -7 24 -6 0 -11 -7 -11 -15 0 -8 -5 -15 -10 -15 -7 0 -7 6 0 20 9 16 6 22
-15 36 -20 13 -23 19 -13 25 11 7 11 9 0 9 -7 0 -10 5 -7 10 3 6 2 10 -3 10
-11 0 -35 87 -27 100 3 5 1 11 -4 15 -11 6 -20 60 -25 140 -4 57 15 180 37
241 49 136 159 290 280 394 45 39 90 77 100 85 9 8 22 15 27 15 6 0 10 4 10
10 0 5 3 9 8 8 4 -1 26 7 50 19 23 12 42 17 42 11 0 -6 7 -8 15 -4 17 6 20 -4
5 -22 -6 -6 -7 -10 -3 -7 3 3 16 -3 27 -12 20 -17 20 -17 7 0 -15 19 -9 22 20
7 15 -9 21 -7 25 5 6 14 9 14 31 -1 14 -9 23 -11 19 -6 -3 6 -1 14 5 18 7 4 9
3 5 -4 -3 -5 -1 -12 6 -14 6 -2 -28 -47 -75 -99 -86 -93 -120 -144 -52 -79 23
22 35 29 35 19 0 -8 -5 -20 -12 -27 -9 -9 -9 -12 1 -12 11 0 11 -3 0 -17 -10
-11 -10 -14 -1 -9 8 5 12 1 13 -11 0 -10 6 0 13 22 19 60 41 97 78 131 43 39
88 67 88 54 0 -5 5 -10 10 -10 6 0 10 9 10 20 0 11 3 20 8 20 4 0 6 -24 6 -52
-2 -62 5 -108 17 -108 5 0 6 8 3 18 -5 14 -3 14 10 -2 16 -19 16 -19 16 5 0
13 -4 41 -9 62 -5 21 -5 37 0 37 5 0 9 -4 9 -8 0 -5 15 -9 33 -10 88 -3 111
-9 138 -37 16 -15 31 -36 34 -46 4 -11 11 -19 16 -19 6 0 7 -4 4 -10 -3 -5 1
-10 10 -10 9 0 13 5 10 10 -13 21 17 9 47 -20 17 -16 33 -30 35 -30 13 0 -31
56 -99 124 -43 43 -78 79 -78 80 0 7 41 3 46 -5 4 -6 11 -6 20 2 11 9 19 8 37
-7 18 -16 19 -16 8 -1 -14 17 -11 20 24 20 30 0 36 -3 29 -15 -4 -7 -3 -8 4
-4 7 4 12 13 12 21 0 21 19 28 35 15 8 -7 15 -9 15 -5 0 4 7 2 15 -5 8 -7 15
-9 15 -5 0 5 8 1 18 -8 9 -8 28 -17 42 -19 14 -2 24 -9 22 -16 -1 -8 2 -11 7
-7 10 5 69 -20 81 -34 10 -12 52 -32 45 -22 -3 6 -1 11 6 11 8 0 8 4 -1 15 -7
8 -17 15 -23 15 -6 0 -19 8 -29 17 -18 16 -19 16 -13 -3 5 -17 5 -17 -5 1 -11
21 -57 52 -145 100 -27 15 -61 38 -74 51 l-25 23 40 -4 c39 -5 170 -47 181
-59 4 -3 15 -6 26 -6 14 0 18 5 15 18 -4 15 0 18 18 16 34 -3 66 7 61 20 -3 7
13 12 42 14 128 7 130 11 21 42 -133 38 -93 51 65 21 27 -5 53 -7 56 -5 4 2
10 -2 12 -8 3 -8 6 -6 6 5 1 9 -6 17 -16 17 -9 0 -13 3 -10 6 9 10 67 13 67 4
0 -4 12 -6 26 -4 20 2 24 -1 20 -13 -5 -12 -4 -13 7 -5 8 7 17 8 21 4 4 -4 7
-2 6 3 -5 21 1 29 10 15 7 -11 10 -11 10 -2 0 7 5 10 10 7 6 -3 10 -1 10 5 0
17 30 5 163 -61z m-1459 -115 c3 -8 2 -12 -4 -9 -6 3 -10 10 -10 16 0 14 7 11
14 -7z m-2546 -165 c-6 -4 -8 -14 -5 -24 4 -10 3 -14 -4 -9 -6 3 -8 17 -5 30
4 14 2 24 -4 24 -6 0 -8 5 -5 11 5 6 12 4 20 -8 9 -12 10 -20 3 -24z m-984
-115 c8 -21 -7 -17 -21 6 -11 16 -10 18 1 14 8 -3 17 -12 20 -20z m2216 -11
c-11 -17 -11 -17 -6 0 3 10 6 24 7 30 0 9 2 9 5 0 3 -7 0 -20 -6 -30z m-1520
-147 c0 -3 -4 -8 -10 -11 -5 -3 -10 -1 -10 4 0 6 5 11 10 11 6 0 10 -2 10 -4z
m-829 -31 c5 4 9 1 9 -4 0 -6 -4 -11 -8 -11 -12 0 -32 22 -32 35 0 5 5 2 11
-8 6 -9 14 -15 20 -12z m64 -51 c16 -13 17 -15 3 -10 -15 4 -16 3 -6 -14 7
-10 14 -17 16 -15 3 2 13 -6 24 -18 11 -12 16 -15 12 -7 -7 13 -6 13 12 0 26
-21 34 -32 27 -44 -4 -5 -1 -6 6 -1 8 4 25 -4 44 -23 69 -65 364 -232 410
-232 10 0 15 -4 12 -10 -3 -5 0 -7 9 -4 8 3 28 -2 45 -10 17 -9 34 -16 38 -16
5 0 15 -3 25 -6 19 -6 33 -34 16 -34 -7 0 -6 -5 2 -15 10 -11 9 -18 -4 -30 -9
-9 -16 -13 -16 -8 0 5 5 14 12 21 9 9 8 12 -5 12 -9 0 -17 -5 -17 -11 0 -5 -5
-7 -10 -4 -6 4 -8 10 -5 15 10 16 -28 3 -40 -13 -13 -19 -40 -23 -50 -7 -3 5
-13 6 -21 3 -9 -3 -39 4 -67 17 -74 32 -82 37 -80 49 2 6 -3 8 -11 5 -7 -3
-21 2 -29 11 -9 9 -19 15 -22 14 -33 -7 -285 217 -270 241 3 6 0 7 -10 4 -11
-5 -14 -2 -8 12 4 12 3 15 -5 10 -15 -9 -16 6 -2 22 7 9 7 9 -2 2 -15 -13 -28
-13 -28 -1 0 6 -14 30 -31 55 -21 32 -28 52 -24 67 6 18 8 18 18 5 7 -9 21
-23 32 -32z m578 22 c15 -12 16 -14 2 -20 -9 -3 -15 0 -15 10 0 8 -4 13 -9 9
-5 -3 -12 -1 -16 5 -9 14 17 12 38 -4z m344 -18 c-3 -8 -6 -5 -6 6 -1 11 2 17
5 13 3 -3 4 -12 1 -19z m1133 -285 c-61 -118 -92 -214 -115 -352 -20 -117 -16
-270 9 -376 8 -33 13 -62 10 -64 -2 -2 -17 25 -34 61 -20 43 -34 95 -43 157
l-12 93 -38 -113 c-64 -194 -68 -325 -12 -462 28 -70 81 -160 114 -193 13 -13
19 -24 13 -24 -18 0 -109 109 -141 169 -117 219 -93 517 55 672 13 14 24 37
24 51 0 36 46 192 76 258 30 65 125 220 136 220 5 0 -15 -44 -42 -97z m591
-180 c13 -16 12 -17 -3 -4 -17 13 -22 21 -14 21 2 0 10 -8 17 -17z m-1991 -45
c0 -2 -9 -4 -20 -4 -11 0 -20 1 -20 2 0 1 3 9 6 18 5 13 8 13 20 1 8 -7 14
-15 14 -17z m2105 -73 c53 -49 108 -96 121 -103 13 -7 24 -17 24 -23 0 -6 -6
-6 -17 0 -29 16 -168 143 -204 186 -41 49 -42 50 76 -60z m1862 33 c-3 -7 -5
-2 -5 12 0 14 2 19 5 13 2 -7 2 -19 0 -25z m315 -96 c-23 -21 -56 -46 -72 -55
l-29 -18 10 30 c8 21 15 28 26 24 12 -5 14 -3 8 7 -5 9 -4 11 3 6 6 -4 28 4
49 18 53 35 55 31 5 -12z m-409 -7 c-3 -9 -8 -14 -10 -11 -3 3 -2 9 2 15 9 16
15 13 8 -4z m-168 -125 c-3 -5 -12 -10 -18 -10 -7 0 -6 4 3 10 19 12 23 12 15
0z m1256 -131 c24 -163 -27 -339 -129 -449 l-51 -55 25 50 c13 28 33 84 43
125 11 41 20 68 21 60 3 -34 21 39 34 134 8 56 14 90 15 76 1 -14 6 -32 12
-40 8 -11 9 14 5 90 -3 58 -8 116 -11 130 -4 21 -3 19 9 -6 8 -18 21 -69 27
-115z m-2916 -99 c9 -57 18 -106 21 -109 9 -9 22 21 29 65 6 44 24 72 20 31
-3 -31 13 -70 26 -62 6 4 9 16 6 26 -6 23 15 25 36 4 8 -8 22 -47 32 -87 19
-78 72 -227 86 -242 5 -6 9 -15 9 -22 0 -18 87 -166 121 -204 17 -19 29 -30
26 -25 -2 6 -26 57 -54 115 -69 143 -124 293 -127 346 -1 24 -1 44 1 44 2 0
12 -18 22 -41 11 -25 21 -36 24 -27 4 9 6 8 6 -3 1 -15 33 -33 54 -30 7 1 11
-15 8 -31 -2 -13 27 -9 33 5 3 6 3 -1 1 -16 -3 -23 -1 -27 10 -17 11 9 16 7
24 -9 9 -16 8 -20 -6 -23 -15 -3 -15 -4 0 -19 9 -9 13 -19 10 -23 -4 -3 1 -6
9 -6 9 0 19 -7 22 -16 3 -8 10 -13 15 -10 5 3 14 -8 20 -24 5 -17 14 -30 19
-30 14 0 22 -38 8 -44 -6 -2 -1 -8 10 -11 16 -5 20 -13 17 -28 -4 -18 -3 -19
6 -7 10 13 15 8 12 -12 0 -5 4 -8 9 -8 6 0 8 -11 4 -27 -6 -24 -5 -26 8 -15
13 10 18 9 29 -5 13 -16 12 -17 -4 -4 -15 12 -17 12 -14 -5 9 -46 20 -73 27
-69 5 3 6 -4 3 -15 -4 -16 -2 -19 13 -14 13 4 15 3 6 -3 -10 -8 -7 -21 13 -64
13 -30 25 -59 25 -66 0 -23 -22 -25 -52 -3 -26 19 -29 20 -26 3 3 -15 -3 -18
-41 -16 l-44 2 62 -29 c63 -30 149 -108 175 -158 21 -42 30 -76 18 -68 -6 3
-13 2 -16 -2 -3 -5 -15 -8 -28 -7 -28 2 -46 -21 -43 -55 1 -14 -4 -31 -12 -38
-7 -7 -13 -28 -13 -47 l0 -33 53 3 c28 2 54 4 57 5 3 1 8 2 12 1 14 -1 79 111
88 151 l9 43 -4 -51 c-8 -103 -63 -161 -171 -179 -21 -3 -49 -8 -60 -10 -21
-5 -21 -4 -7 37 19 55 29 168 15 168 -6 0 -18 -20 -27 -44 -10 -25 -28 -54
-40 -66 l-24 -22 6 23 c4 19 2 21 -6 9 -6 -8 -21 -16 -33 -18 -13 -1 -29 -3
-35 -4 -7 -1 -13 -4 -13 -8 0 -4 -10 -6 -22 -6 -13 1 -30 -1 -40 -6 -10 -5
-18 -3 -21 7 -5 11 -12 12 -36 2 -17 -6 -34 -8 -38 -3 -4 4 -8 38 -8 74 1 49
7 78 23 110 23 43 17 56 -10 25 -26 -29 -57 -96 -70 -150 l-12 -51 -68 1 c-39
1 -68 6 -68 12 0 5 -7 2 -15 -9 -13 -17 -14 -17 -22 10 -20 73 -4 162 40 229
l20 30 -32 -30 c-41 -38 -78 -116 -87 -181 -6 -47 -8 -51 -33 -50 -14 1 -32 5
-39 10 -7 4 -16 5 -19 2 -3 -3 -12 -1 -20 5 -10 9 -13 7 -14 -7 0 -18 -1 -18
-9 1 -12 28 -12 119 0 151 18 47 2 38 -24 -15 -14 -28 -26 -61 -26 -73 0 -13
-9 -29 -20 -36 -12 -7 -18 -17 -15 -23 4 -5 1 -8 -6 -7 -7 2 -15 -10 -18 -26
l-6 -29 -19 35 c-15 28 -18 48 -14 95 13 137 124 255 296 315 56 19 87 23 194
23 l127 0 -26 27 c-27 29 -46 31 -23 3 11 -13 10 -14 -4 -9 -9 3 -16 10 -16
15 0 4 -7 6 -15 3 -10 -4 -15 0 -15 10 0 9 -6 19 -14 22 -14 6 -30 56 -44 139
l-8 50 -19 -58 c-13 -38 -22 -54 -29 -47 -5 5 -12 77 -14 160 l-4 149 -29 -30
c-30 -32 -35 -28 -31 24 1 9 -3 17 -8 17 -6 0 -10 -4 -10 -10 0 -20 -21 -9
-33 18 -7 15 -19 28 -27 30 -8 2 -19 8 -25 14 -7 8 -6 9 3 4 6 -4 12 -2 12 3
0 6 -6 11 -12 11 -10 0 -10 2 0 8 9 6 8 13 -6 28 -11 11 -18 27 -16 37 1 9 -2
15 -7 14 -6 -1 -17 13 -24 32 -13 29 -13 32 0 27 20 -7 19 11 -2 22 -25 14
-35 114 -13 136 5 5 10 20 10 32 0 12 5 24 12 26 6 2 12 13 13 24 0 11 11 31
23 44 12 13 23 29 23 34 2 12 9 -33 34 -194z m2388 167 c17 -19 37 -55 37 -68
0 -6 9 -24 21 -40 11 -16 18 -33 15 -38 -4 -5 -2 -11 3 -13 5 -1 12 -19 15
-38 6 -27 5 -32 -4 -20 -9 12 -11 7 -8 -22 3 -25 1 -35 -6 -28 -6 6 -14 10
-20 10 -6 0 -6 -4 1 -11 7 -7 8 -21 2 -41 -4 -17 -6 -35 -3 -39 3 -5 1 -9 -5
-9 -5 0 -11 5 -13 10 -2 6 -9 1 -15 -10 -11 -17 -10 -18 5 -13 15 6 15 5 3
-10 -8 -10 -16 -15 -19 -12 -7 7 -51 -85 -51 -108 -1 -10 -5 -16 -10 -12 -5 3
-12 1 -15 -4 -4 -5 -2 -12 4 -16 5 -3 10 -12 10 -18 0 -8 -3 -9 -8 -1 -9 13
-45 27 -37 14 8 -14 -12 -48 -36 -61 -16 -8 -24 -7 -38 5 -16 15 -18 15 -19
-1 0 -10 3 -49 8 -88 18 -135 22 -180 17 -175 -3 3 -19 32 -36 65 -26 52 -30
57 -32 33 -1 -16 -2 -31 -3 -35 -1 -5 -6 -28 -10 -53 -9 -46 -49 -120 -66
-120 -14 0 -13 12 9 61 40 94 35 139 -6 51 -31 -66 -73 -123 -88 -121 -3 0
-11 -2 -18 -4 -6 -3 3 -6 21 -6 17 -1 32 2 32 7 0 13 203 -5 255 -23 90 -31
167 -76 215 -125 73 -74 110 -171 91 -235 -5 -16 -10 -22 -10 -12 -1 20 -17
23 -24 5 -3 -10 -9 -10 -26 0 -18 10 -22 10 -27 -3 -10 -25 -20 -17 -22 18 -4
49 -20 99 -41 126 -19 24 -19 24 -13 -47 6 -84 -3 -126 -23 -118 -8 3 -17 1
-20 -4 -4 -6 -30 -10 -59 -10 l-53 0 -7 58 c-7 63 -44 148 -77 178 -21 19 -21
19 1 -26 27 -52 37 -152 20 -195 -9 -23 -13 -26 -20 -15 -6 8 -10 10 -10 5 0
-12 -92 -11 -111 0 -7 5 -10 4 -5 -3 4 -7 -1 -10 -14 -9 -15 1 -21 10 -26 37
-10 67 -34 116 -80 165 -32 36 -38 40 -20 14 14 -20 31 -61 37 -92 12 -59 4
-161 -11 -137 -4 7 -31 14 -61 16 -86 6 -139 24 -150 51 -4 12 -13 23 -18 23
-5 0 -12 11 -15 25 -12 47 -26 25 -26 -42 0 -75 -5 -80 -13 -13 -3 25 -6 47
-6 49 -1 2 -8 0 -17 -3 -8 -3 -12 -2 -9 4 3 6 -3 10 -14 10 -12 0 -21 5 -21
11 0 5 -5 7 -11 3 -8 -4 -9 1 -5 17 l7 24 -16 -25 -16 -25 6 28 c15 72 104
173 189 213 37 18 47 34 22 34 -8 0 -17 -6 -19 -12 -3 -7 -6 -3 -6 10 -1 29
-14 28 -45 -3 -26 -26 -46 -32 -46 -15 0 5 9 33 21 62 12 29 23 67 26 83 3 17
9 31 13 33 5 2 7 9 4 17 -3 7 5 20 18 29 12 9 18 16 13 16 -5 0 -1 6 10 13 12
10 14 16 7 21 -19 11 -15 36 5 29 11 -4 14 -3 9 5 -4 7 -3 12 3 12 6 0 8 6 5
14 -3 8 -1 17 5 21 6 3 11 -1 11 -10 0 -9 4 -14 10 -10 5 3 7 12 4 20 -4 8 1
18 10 21 9 3 13 10 10 15 -3 5 -10 7 -15 4 -5 -4 -9 -1 -9 5 0 7 6 10 14 7 18
-7 40 18 31 33 -4 6 -14 9 -24 5 -12 -5 -13 -3 -5 5 9 9 18 9 35 -1 23 -12 23
-12 6 14 -16 25 -16 26 3 22 11 -2 20 0 20 4 0 5 9 11 20 14 12 3 20 14 20 26
0 11 8 25 18 30 13 8 13 10 3 11 -12 0 -12 3 -3 12 10 10 15 10 22 -2 8 -13
10 -12 10 3 0 9 5 17 11 17 6 0 9 7 5 15 -3 9 0 15 8 15 19 0 43 30 25 31 -8
0 -4 5 7 11 12 5 27 21 35 34 20 38 32 29 26 -18 -8 -59 -74 -216 -151 -362
-36 -68 -63 -126 -60 -129 20 -20 153 203 212 353 29 72 92 289 92 314 0 16 3
17 12 8 7 -7 21 -12 31 -12 11 0 21 -9 24 -21 4 -13 11 -18 20 -14 12 4 14 0
8 -22 -5 -23 -4 -25 9 -14 14 12 16 9 17 -25 l1 -39 13 30 c8 17 17 55 20 85
4 30 8 64 10 75 2 11 4 48 4 83 1 64 4 71 24 49z m-1942 -39 c16 -29 2 -21
-22 15 -17 23 -18 28 -6 18 10 -8 23 -23 28 -33z m1469 2 c-11 -16 -26 -33
-33 -37 -12 -7 0 11 32 50 23 28 24 20 1 -13z m-2475 -193 c6 -15 10 -16 16
-5 6 9 9 8 9 -7 0 -29 29 -138 40 -149 5 -5 7 20 5 55 -4 59 -4 60 4 19 16
-85 42 -157 72 -204 26 -41 27 -46 8 -32 -44 30 -110 122 -140 194 -39 95 -53
177 -43 250 l8 57 7 -80 c4 -44 10 -88 14 -98z m1445 169 c0 -3 -4 -8 -10 -11
-5 -3 -10 -1 -10 4 0 6 5 11 10 11 6 0 10 -2 10 -4z m-345 -78 c6 -2 9 -7 7
-11 -1 -5 2 -6 6 -3 5 3 17 -3 27 -14 10 -11 24 -20 32 -20 7 0 13 -5 13 -11
0 -7 9 -9 23 -6 19 5 26 -2 54 -64 l32 -70 -32 27 c-85 72 -168 151 -203 193
l-37 46 34 -32 c19 -18 39 -33 44 -35z m1296 3 c-12 -16 -46 -52 -76 -79 -117
-107 -143 -112 -105 -17 15 37 26 52 36 48 8 -3 25 2 39 11 14 9 25 13 25 9 0
-3 12 4 27 18 14 13 23 18 19 12 -11 -20 9 -15 29 7 26 29 30 24 6 -9z m-771
-85 c0 -2 -8 -10 -17 -17 -16 -13 -17 -12 -4 4 13 16 21 21 21 13z m240 -16
c8 -5 11 -10 5 -10 -5 0 -17 5 -25 10 -8 5 -10 10 -5 10 6 0 17 -5 25 -10z
m-175 -20 c-3 -5 -14 -10 -23 -9 -14 0 -13 2 3 9 27 11 27 11 20 0z m373 -97
c-17 -27 -71 -97 -118 -158 -103 -131 -159 -215 -184 -272 l-19 -42 -61 90
c-33 50 -72 108 -86 129 -14 21 -56 76 -93 122 -38 46 -72 92 -77 103 -4 12
-15 27 -24 34 -9 7 -16 18 -16 22 0 5 19 -10 43 -33 24 -24 62 -59 86 -78 64
-52 132 -119 175 -172 37 -46 56 -59 56 -38 0 5 43 54 95 109 73 75 101 98
115 94 12 -3 22 1 26 11 3 9 10 13 15 10 5 -3 9 4 9 15 0 12 7 21 15 21 8 0
15 4 15 9 0 8 51 71 58 71 1 0 -12 -21 -30 -47z m1139 -201 c6 -100 -16 -206
-63 -299 -73 -144 -75 -106 -7 102 27 85 37 132 41 209 6 116 21 109 29 -12z
m-2918 -35 c1 -21 24 -105 52 -188 28 -83 49 -155 46 -162 -6 -19 -57 66 -84
140 -20 54 -26 91 -29 183 -2 74 0 106 5 90 5 -14 9 -42 10 -63z m1357 -297
c20 -36 48 -98 63 -138 l27 -72 18 57 c10 32 30 81 44 108 25 51 99 165 107
165 2 0 -3 -17 -12 -37 -61 -146 -57 -319 11 -469 l23 -50 -189 0 c-163 1
-188 3 -184 16 3 8 15 42 27 75 41 115 36 324 -12 435 l-19 45 29 -35 c17 -19
46 -64 67 -100z m406 -437 c5 -7 7 -17 3 -23 -3 -5 -2 -10 3 -10 6 0 8 -8 5
-18 -4 -16 29 -66 45 -68 7 -1 36 -12 72 -28 8 -3 2 -3 -15 0 -91 17 -126 60
-130 159 -1 33 -1 47 2 30 3 -16 9 -35 15 -42z m191 -160 c-7 -2 -19 -2 -25 0
-7 3 -2 5 12 5 14 0 19 -2 13 -5z"/>
<path d="M4167 3413 c-11 -11 -8 -20 7 -20 8 0 12 6 9 14 -6 15 -7 15 -16 6z"/>
<path d="M4200 3390 c0 -5 5 -10 11 -10 5 0 7 5 4 10 -3 6 -8 10 -11 10 -2 0
-4 -4 -4 -10z"/>
<path d="M4250 3380 c-13 -8 -12 -10 3 -10 9 0 17 5 17 10 0 12 -1 12 -20 0z"/>
<path d="M4189 2539 c-9 -24 -9 -33 0 -42 10 -9 12 -8 11 8 -4 35 0 43 18 47
15 3 15 4 0 10 -12 5 -19 -1 -29 -23z"/>
<path d="M4165 2481 c-3 -5 -1 -12 5 -16 5 -3 10 1 10 9 0 18 -6 21 -15 7z"/>
<path d="M4010 2416 c0 -9 5 -16 10 -16 6 0 10 4 10 9 0 6 -4 13 -10 16 -5 3
-10 -1 -10 -9z"/>
<path d="M6227 3399 c7 -7 15 -10 18 -7 3 3 -2 9 -12 12 -14 6 -15 5 -6 -5z"/>
<path d="M5460 3185 c0 -2 6 -8 13 -14 10 -8 14 -7 14 2 0 8 -6 14 -14 14 -7
0 -13 -1 -13 -2z"/>
<path d="M6645 3100 c3 -5 8 -10 11 -10 2 0 4 5 4 10 0 6 -5 10 -11 10 -5 0
-7 -4 -4 -10z"/>
<path d="M5850 3070 c0 -5 5 -10 11 -10 5 0 7 5 4 10 -3 6 -8 10 -11 10 -2 0
-4 -4 -4 -10z"/>
<path d="M5841 3015 c13 -13 28 -25 33 -25 5 0 -1 11 -14 25 -13 14 -28 25
-33 25 -5 0 1 -11 14 -25z"/>
<path d="M4370 2320 c0 -5 5 -10 11 -10 5 0 7 5 4 10 -3 6 -8 10 -11 10 -2 0
-4 -4 -4 -10z"/>
<path d="M4380 2292 c0 -5 7 -9 15 -9 8 0 12 4 9 9 -3 4 -9 8 -15 8 -5 0 -9
-4 -9 -8z"/>
<path d="M5906 2265 c-9 -26 -7 -32 5 -12 6 10 9 21 6 23 -2 3 -7 -2 -11 -11z"/>
<path d="M4355 2240 c-3 -5 -1 -10 4 -10 6 0 11 5 11 10 0 6 -2 10 -4 10 -3 0
-8 -4 -11 -10z"/>
<path d="M4440 2231 c0 -5 7 -12 16 -15 14 -5 15 -4 4 9 -14 17 -20 19 -20 6z"/>
<path d="M4412 2180 c0 -14 2 -19 5 -12 2 6 2 18 0 25 -3 6 -5 1 -5 -13z"/>
<path d="M5840 2155 c0 -8 2 -15 4 -15 2 0 6 7 10 15 3 8 1 15 -4 15 -6 0 -10
-7 -10 -15z"/>
<path d="M5820 2102 c0 -6 -7 -9 -15 -6 -8 4 -15 1 -15 -5 0 -6 6 -11 14 -11
17 0 31 18 22 27 -3 4 -6 1 -6 -5z"/>
<path d="M5515 1840 c3 -5 8 -10 11 -10 2 0 4 5 4 10 0 6 -5 10 -11 10 -5 0
-7 -4 -4 -10z"/>
<path d="M1270 2730 c0 -5 5 -10 11 -10 5 0 7 5 4 10 -3 6 -8 10 -11 10 -2 0
-4 -4 -4 -10z"/>
<path d="M1788 2323 c7 -3 16 -2 19 1 4 3 -2 6 -13 5 -11 0 -14 -3 -6 -6z"/>
<path d="M1906 2285 c7 -18 18 -19 32 -2 8 10 5 13 -13 15 -18 1 -23 -2 -19
-13z"/>
<path d="M1807 2276 c-4 -10 -1 -13 8 -9 8 3 12 9 9 14 -7 12 -11 11 -17 -5z"/>
<path d="M1881 2282 c0 -7 -6 -10 -13 -6 -7 5 -8 3 -2 -7 5 -8 9 -18 9 -24 0
-16 28 -12 32 5 4 13 3 13 -5 1 -8 -11 -11 -8 -15 15 -2 16 -5 23 -6 16z"/>
<path d="M1840 2265 c0 -8 4 -15 10 -15 5 0 7 7 4 15 -4 8 -8 15 -10 15 -2 0
-4 -7 -4 -15z"/>
<path d="M4261 1018 c-1 -15 4 -30 9 -33 12 -7 12 12 0 40 -8 18 -9 17 -9 -7z"/>
<path d="M4348 463 c7 -3 16 -2 19 1 4 3 -2 6 -13 5 -11 0 -14 -3 -6 -6z"/>
<path d="M2181 4547 c-6 -16 -9 -33 -6 -37 3 -5 -1 -12 -9 -17 -8 -4 -17 -19
-19 -33 -3 -14 -9 -36 -15 -50 -5 -14 -12 -56 -15 -95 -6 -68 -6 -69 7 -30 16
49 61 139 88 178 11 15 17 34 14 42 -2 7 0 16 7 19 7 2 4 5 -6 5 -10 1 -22 11
-26 24 -9 22 -9 22 -20 -6z"/>
<path d="M2220 4556 c0 -2 7 -7 16 -10 8 -3 12 -2 9 4 -6 10 -25 14 -25 6z"/>
<path d="M7836 4488 c3 -5 10 -6 15 -3 13 9 11 12 -6 12 -8 0 -12 -4 -9 -9z"/>
<path d="M6364 4199 c-5 -9 -2 -10 9 -6 9 3 18 2 21 -4 2 -5 3 -4 2 3 -3 17
-23 21 -32 7z"/>
<path d="M6556 4194 c-4 -9 -4 -19 -1 -22 3 -3 5 0 5 6 0 6 8 9 18 6 10 -4 13
-2 7 3 -5 4 -13 12 -16 16 -4 4 -9 0 -13 -9z"/>
<path d="M4157 4110 c3 -11 9 -17 15 -14 5 3 4 12 -3 20 -16 19 -18 18 -12 -6z"/>
<path d="M2257 3483 c-10 -9 -9 -23 1 -23 5 0 9 7 9 15 0 17 -1 18 -10 8z"/>
<path d="M2313 3055 c-3 -9 -3 -18 -1 -21 3 -3 8 4 11 16 6 23 -1 27 -10 5z"/>
<path d="M2279 3023 c-13 -16 -12 -17 4 -4 9 7 17 15 17 17 0 8 -8 3 -21 -13z"/>
<path d="M2245 2881 c4 -13 0 -23 -12 -29 -15 -9 -13 -10 9 -9 23 2 24 4 16
30 -11 30 -23 38 -13 8z"/>
<path d="M2000 2784 c0 -8 5 -12 10 -9 6 3 10 10 10 16 0 5 -4 9 -10 9 -5 0
-10 -7 -10 -16z"/>
<path d="M7480 490 c-17 -11 -8 -23 14 -18 9 2 12 8 8 15 -5 8 -13 9 -22 3z"/>
<path d="M2637 479 c7 -7 15 -10 18 -7 3 3 -2 9 -12 12 -14 6 -15 5 -6 -5z"/>
<path d="M7533 483 c-7 -3 -13 -9 -13 -14 0 -6 4 -8 9 -4 6 3 9 -4 8 -15 -1
-11 -5 -20 -9 -20 -4 0 -8 -5 -8 -10 0 -6 13 -5 33 3 17 8 38 13 45 11 7 -1 8
0 2 3 -16 8 -11 19 9 19 12 0 17 -5 13 -16 -4 -11 -2 -12 7 -4 20 18 3 44 -22
35 -14 -5 -30 -3 -42 4 -11 7 -26 11 -32 8z"/>
<path d="M2578 453 c7 -3 16 -2 19 1 4 3 -2 6 -13 5 -11 0 -14 -3 -6 -6z"/>
<path d="M7660 450 c0 -5 4 -10 9 -10 6 0 13 5 16 10 3 6 -1 10 -9 10 -9 0
-16 -4 -16 -10z"/>
<path d="M7718 453 c7 -3 16 -2 19 1 4 3 -2 6 -13 5 -11 0 -14 -3 -6 -6z"/>
</g>
</svg>
